<svg id="Layer_1" data-name="Layer 1" xmlns="http://www.w3.org/2000/svg" viewBox="0 0 1086 894"><defs><style>.cls-1{fill:#231f20;}</style></defs><title>encointer_logo</title><path class="cls-1" d="M42.1,709.19C43.18,732.14,57.22,747,77.74,747c15.11,0,23.75-5.94,34.55-23.49l16.2,9.18c-12.42,21.87-28.89,31.85-51.56,31.85-32.4,0-55.08-24-55.08-58.58,0-35.1,22.14-59.12,54.27-59.12,32.39,0,53.45,23.49,53.45,59.12v3.24ZM109.32,693c-3.51-17.54-16.47-28.88-32.93-28.88-16.2,0-30,12.14-32.94,28.88Z"/><path class="cls-1" d="M188.69,649.26v13.49c9.72-11.87,18.36-16.19,32.4-16.19,13.49,0,25.91,5.94,32.12,15.39,4.32,7,6.21,15.38,6.21,30V761.3H240.25V695.15c0-11.88-.81-17.28-3.78-21.86-3.51-5.94-11.06-9.45-20-9.45-10.52,0-19.16,4.85-23.21,13.49-3.24,6.75-4.59,14.58-4.59,28.08V761.3H169.52v-112Z"/><path class="cls-1" d="M812.05,761.3H792.88V667.07H781.27V649.26h11.61v-40.5h19.17v40.5h20v17.81h-20Z"/><path class="cls-1" d="M876,709.19c1.08,22.95,15.11,37.8,35.63,37.8,15.12,0,23.76-5.94,34.56-23.49l16.2,9.18c-12.42,21.87-28.89,31.85-51.57,31.85-32.39,0-55.07-24-55.07-58.58,0-35.1,22.14-59.12,54.26-59.12,32.4,0,53.46,23.49,53.46,59.12v3.24ZM943.25,693c-3.51-17.54-16.47-28.88-32.94-28.88-16.2,0-30,12.14-32.93,28.88Z"/><path class="cls-1" d="M1022.62,649.26V661.4c10-12.14,14.58-14.84,25.37-14.84,6.48,0,10.26,1.08,17,4.86l-8.91,17.27c-4.59-3-7-3.78-11.34-3.78-7.29,0-14.57,4.06-17.81,10-3,5.67-3.5,13.77-3.5,27.27l-.82,59.13h-19.17v-112Z"/><path class="cls-1" d="M359,764c-35.09,0-62.58-27.12-62.58-61.75a61.85,61.85,0,0,1,18.12-44.37c11.67-11.57,27.56-17.93,44.73-17.93,14,0,23.9,3,36.53,11a3.21,3.21,0,0,1,1.47,2.68V679a3.18,3.18,0,0,1-5.54,2.13c-12-13.27-19.68-17.31-33-17.31-21,0-36.23,16-36.23,38.13s15.13,38.12,36,38.12c13.42,0,21.7-4.46,34.07-18.37a3.18,3.18,0,0,1,5.55,2.11v25.38a3.19,3.19,0,0,1-1.49,2.69C382.22,760.9,372.73,764,359,764Zm.27-117.7c-15.49,0-29.78,5.71-40.26,16.09a55.52,55.52,0,0,0-16.23,39.86c0,31.06,24.69,55.4,56.22,55.4,12,0,20.16-2.5,32.72-10.2V731.77c-10.89,10.69-20.22,14.64-33.26,14.64-24.53,0-42.32-18.71-42.32-44.48,0-25.36,18.3-44.49,42.58-44.49,12.91,0,21.74,3.57,32.19,13.65V655.36C380.16,648.74,371.42,646.25,359.31,646.25Z"/><path class="cls-1" d="M485.31,764c-34.78,0-62-27.73-62-63.11,0-33.61,28.07-61,62.57-61,34.94,0,62.3,27.24,62.3,62S520.55,764,485.31,764Zm.54-117.71c-31,0-56.22,24.49-56.22,54.6a57.15,57.15,0,0,0,16.07,40.39,55,55,0,0,0,39.61,16.36c31.68,0,56.49-24.45,56.49-55.67S517.22,646.25,485.85,646.25ZM485,746.41c-24.76,0-42.05-18.52-42.05-45,0-25.47,17.91-43.95,42.59-43.95,12.12,0,23.07,4.45,30.84,12.52s12,19.4,12,32C528.44,728.12,510.59,746.41,485,746.41Zm.54-82.61c-21.34,0-36.24,15.45-36.24,37.59,0,22.76,14.68,38.66,35.7,38.66,21.81,0,37.05-15.67,37.05-38.12S507.08,663.8,485.58,663.8Z"/><path class="cls-1" d="M602.83,758.29H583.66a3.18,3.18,0,0,1-3.18-3.18v-112a3.18,3.18,0,0,1,3.18-3.17h19.17a3.17,3.17,0,0,1,3.18,3.17v112A3.18,3.18,0,0,1,602.83,758.29Zm-16-6.35h12.82V646.25H586.84Z"/><path class="cls-1" d="M742.72,761.8H723.55a3.19,3.19,0,0,1-3.18-3.18V692.48c0-11.57-.76-16.27-3.27-20.14l-.06-.11c-2.92-4.94-9.37-7.89-17.25-7.89-9.45,0-16.86,4.25-20.34,11.67-3.09,6.43-4.29,13.91-4.29,26.72v55.89A3.18,3.18,0,0,1,672,761.8H652.82a3.18,3.18,0,0,1-3.18-3.18v-112a3.18,3.18,0,0,1,3.18-3.18H672a3.18,3.18,0,0,1,3.17,3.18v5.32c8.37-8,16.93-11.19,29.22-11.19,14.64,0,28,6.44,34.78,16.82a.22.22,0,0,1,.05.08c4.75,7.71,6.69,16.87,6.69,31.63v69.38A3.19,3.19,0,0,1,742.72,761.8Zm-16-6.36h12.81v-66.2c0-13.63-1.6-21.56-5.71-28.27-5.58-8.45-17.13-13.91-29.45-13.91-13,0-20.85,3.93-29.93,15a3.18,3.18,0,0,1-5.64-2V649.76H656V755.44h12.82V702.73c0-13.85,1.37-22.1,4.9-29.45C678.2,663.71,688,658,699.79,658c10.12,0,18.59,4.09,22.68,11,3.62,5.62,4.26,12.08,4.26,23.54Z"/><path class="cls-1" d="M113.9,817a18.67,18.67,0,0,1-18.8,18.54,19.09,19.09,0,0,1-14.29-6.77,18.52,18.52,0,0,1-4.19-12c0-9.94,8.54-18.33,18.69-18.33A18.66,18.66,0,0,1,113.9,817Zm-33.25-.21a14.61,14.61,0,1,0,14.61-14.57A14.75,14.75,0,0,0,80.65,816.79Z"/><path class="cls-1" d="M171.68,797.55l27.89,29.28V799.06h4V836.5l-27.89-29.22v27.61h-4Z"/><path class="cls-1" d="M126.75,797.18l13.76,30.24,14.07-30.3L160.12,835H156l-3.33-24.93L140.51,836.5l-12-26.43L124.93,835h-4.09Z"/><path class="cls-1" d="M222.52,802.76v10.69h14.13v3.71H222.52v14H237v3.71H218.49V799.06H237v3.7Z"/><path class="cls-1" d="M262.75,806.09c-1.83-2.9-3.38-3.87-6.13-3.87a5.64,5.64,0,0,0-6,5.54,4.44,4.44,0,0,0,2.26,3.81c1.29.92,1.29.92,6.23,3.07,5.75,2.52,8.06,5.37,8.06,9.88a11,11,0,0,1-11.39,11c-5.64,0-9.67-3.39-11-9.25l3.86-1.07a9.08,9.08,0,0,0,1.45,3.65,7.13,7.13,0,0,0,5.86,2.9,7.06,7.06,0,0,0,7.2-7,5.68,5.68,0,0,0-3-5.11c-1.34-.86-1.34-.86-6.33-3.11-5.16-2.31-7.26-4.89-7.26-8.81,0-5.32,4.3-9.25,10.05-9.25,4,0,7.09,1.83,9.24,5.59Z"/><path class="cls-1" d="M319.26,813.67V799.06h4v35.83h-4V817.38H301v17.51h-4V799.06h4v14.61Z"/><path class="cls-1" d="M371.45,817a18.67,18.67,0,0,1-18.81,18.54,19.09,19.09,0,0,1-14.29-6.77,18.52,18.52,0,0,1-4.19-12c0-9.94,8.54-18.33,18.7-18.33A18.66,18.66,0,0,1,371.45,817Zm-33.26-.21a14.62,14.62,0,1,0,14.61-14.57A14.76,14.76,0,0,0,338.19,816.79Z"/><path class="cls-1" d="M385.89,797.07l13.75,30.25L413.72,797l5.53,37.88h-4.08L411.84,810l-12.2,26.43-12-26.43-3.55,24.93H380Z"/><path class="cls-1" d="M434.74,834.89h-4V799.06h4Z"/><path class="cls-1" d="M447.63,797.55l27.88,29.28V799.06h4V836.5l-27.88-29.22v27.61h-4Z"/><path class="cls-1" d="M496.54,802.76v10.69h14.13v3.71H496.54v14H511v3.71H492.51V799.06H511v3.7Z"/><path class="cls-1" d="M536.77,806.09c-1.83-2.9-3.39-3.87-6.13-3.87a5.64,5.64,0,0,0-6,5.54,4.44,4.44,0,0,0,2.26,3.81c1.29.92,1.29.92,6.23,3.07,5.75,2.52,8.06,5.37,8.06,9.88a11,11,0,0,1-11.39,11c-5.64,0-9.67-3.39-11-9.25l3.87-1.07a9.08,9.08,0,0,0,1.45,3.65,7.13,7.13,0,0,0,5.86,2.9,7.06,7.06,0,0,0,7.2-7,5.68,5.68,0,0,0-3-5.11c-1.34-.86-1.34-.86-6.34-3.11s-7.25-4.89-7.25-8.81c0-5.32,4.3-9.25,10.05-9.25,4,0,7.09,1.83,9.24,5.59Z"/><path class="cls-1" d="M575.34,824.74,571,834.89h-4.35l16.49-37.55,16.12,37.55h-4.41l-4.24-10.15Zm7.79-18.06L577,821h12.09Z"/><path class="cls-1" d="M611.88,802.76v10.69H626v3.71H611.88v14h14.51v3.71H607.85V799.06h18.54v3.7Z"/><path class="cls-1" d="M667.23,835.27l-3-3.23a18.29,18.29,0,0,1-10.85,3.5,18.54,18.54,0,1,1,18.75-18.33c0,4.84-1.45,8.44-5.16,12.58l5.37,5.48Zm-3.06-8.33a13.54,13.54,0,0,0,3.92-9.83,14.62,14.62,0,1,0-14.78,14.66,13.59,13.59,0,0,0,8.11-2.57l-8.64-8.71H658Z"/><path class="cls-1" d="M686.94,821c0,3.71.27,5.32,1.19,6.88a9.3,9.3,0,0,0,15.09,0c.92-1.56,1.18-3.17,1.18-6.88v-22h4v23c0,3.87-.64,6.29-2.36,8.49a13.39,13.39,0,0,1-20.79,0c-1.72-2.2-2.37-4.56-2.37-8.49v-23h4Z"/><path class="cls-1" d="M723.87,824.74l-4.3,10.15h-4.35l16.49-37.55,16.12,37.55h-4.4l-4.25-10.15Zm7.79-18.06L725.54,821h12.08Z"/><path class="cls-1" d="M760.41,831.18h9.84v3.71H756.38V799.06h4Z"/><path class="cls-1" d="M783,802.76v10.69h14.13v3.71H783v14h14.51v3.71H778.92V799.06h18.54v3.7Z"/><path class="cls-1" d="M823.18,806.09c-1.83-2.9-3.38-3.87-6.12-3.87a5.64,5.64,0,0,0-6,5.54,4.44,4.44,0,0,0,2.26,3.81c1.29.92,1.29.92,6.23,3.07,5.75,2.52,8.06,5.37,8.06,9.88a11,11,0,0,1-11.39,11c-5.64,0-9.67-3.39-11-9.25l3.86-1.07a9.08,9.08,0,0,0,1.45,3.65,7.13,7.13,0,0,0,5.86,2.9,7.06,7.06,0,0,0,7.2-7,5.69,5.69,0,0,0-3-5.11c-1.35-.86-1.35-.86-6.34-3.11-5.16-2.31-7.26-4.89-7.26-8.81,0-5.32,4.3-9.25,10.05-9.25,4,0,7.09,1.83,9.24,5.59Z"/><path class="cls-1" d="M873.35,806.09c-1.82-2.9-3.38-3.87-6.12-3.87a5.63,5.63,0,0,0-6,5.54,4.45,4.45,0,0,0,2.25,3.81c1.29.92,1.29.92,6.23,3.07,5.75,2.52,8.06,5.37,8.06,9.88a11,11,0,0,1-11.39,11c-5.64,0-9.67-3.39-11-9.25l3.87-1.07a8.93,8.93,0,0,0,1.45,3.65,7.25,7.25,0,0,0,13-4.13,5.67,5.67,0,0,0-2.95-5.11c-1.34-.86-1.34-.86-6.34-3.11-5.16-2.31-7.25-4.89-7.25-8.81,0-5.32,4.29-9.25,10-9.25,4,0,7.09,1.83,9.24,5.59Z"/><path class="cls-1" d="M892.36,821c0,3.71.27,5.32,1.19,6.88a9.3,9.3,0,0,0,15.09,0c.92-1.56,1.18-3.17,1.18-6.88v-22h4v23c0,3.87-.64,6.29-2.36,8.49a13.39,13.39,0,0,1-20.79,0c-1.72-2.2-2.37-4.56-2.37-8.49v-23h4Z"/><path class="cls-1" d="M926.72,797.55l27.89,29.28V799.06h4V836.5l-27.89-29.22v27.61h-4Z"/><path class="cls-1" d="M980,834.89h-4V802.76h-8.65v-3.7h21.38v3.7H980Z"/><rect class="cls-1" x="301.33" y="602.35" width="282.25" height="6.35"/><rect class="cls-1" x="602.75" y="602.35" width="139.97" height="6.35"/><rect class="cls-1" x="301.33" y="584.64" width="282.25" height="6.35"/><rect class="cls-1" x="602.75" y="584.64" width="139.97" height="6.35"/><path class="cls-1" d="M312.36,453,317.6,462c10.74-46.34,18.44-114.91-4.06-182.77-2.2-6.64-2.42-29.23-2.57-45.73-.1-10.57-.19-19.7-.7-24.17C309,198.22,308,186.9,307,176c-.08-1-.18-2-.26-3.06l-6.11,10.35c.78,8.89,1.62,17.93,2.66,26.85.47,4.1.55,13.49.65,23.43.18,18.84.38,40.19,2.93,47.87,15.13,45.63,18.16,97,9,152.7C314.84,440.71,313.63,447,312.36,453Z"/><path class="cls-1" d="M277.62,245.08c-1.69,11.3-2.86,24.48,1.27,36.59,8.57,25.12,16.53,67.34,9.9,131.27l6,10.17c5.62-45.83,6.11-98.65-9.26-143.7-3.65-10.68-2.55-22.83-1-33.3,1.79-12,1.2-24.29.39-34.72,0-.43-.07-.87-.11-1.31l-6.3,10.68A127.14,127.14,0,0,1,277.62,245.08Z"/><path class="cls-1" d="M329.44,203.46c6.7,56,15,125.73,18.38,136.65.19.64,14.31,63-17,144.39l4.47,7.62a315.19,315.19,0,0,0,22.22-96.27c2.11-32.49-1.93-54.17-3-57.79-3.17-10.32-11.81-82.63-18.12-135.42-3.65-30.53-6.81-56.94-8.23-65.95l-5.7,9.65C324.1,158.79,326.62,179.9,329.44,203.46Z"/><path class="cls-1" d="M345.05,131.13l.8,2.93c14.54,52.92,21.36,91.56,18.71,106-4.76,26-.34,42.39,4.78,61.39,5.69,21.13,12.14,45.08,7.87,89.7-.32,3.28-.66,7.2-1,11.54C374.66,420.53,372.56,445,369,460a159.88,159.88,0,0,1-22.19,51.6l3.93,6.69a166.86,166.86,0,0,0,25.06-56.67c3.7-15.59,5.82-40.31,7.37-58.35.37-4.31.7-8.21,1-11.47,4.4-45.88-2.22-70.48-8.07-92.18-4.9-18.19-9.13-33.9-4.65-58.32,3.87-21.14-10.15-77.45-18.85-109.13l-.8-2.91c-1.74-6.35-3.88-14.16-6.25-22l-4.86,8.23C342.3,121.1,343.79,126.51,345.05,131.13Z"/><path class="cls-1" d="M492.05,338.38l-4.58-7.6c-10.81-17.94-22-36.49-34.27-53.8-9.39-13.23-10.68-23.65-4.46-36,7.66-15.15,4.56-31.29,1.57-42.1-7.23-26.12-15.47-51.7-24-77.79-4.43-13.58-16.95-40.41-26.44-54.65a73.6,73.6,0,0,0-19-19l-3.57,6a66.46,66.46,0,0,1,16.79,16.86c9.05,13.56,21.41,40.05,25.62,52.94,8.49,26,16.71,51.51,23.89,77.48,4.27,15.42,3.93,27.2-1.07,37.09-7.37,14.59-5.83,27.9,5,43.15,12.13,17.1,23.24,35.53,34,53.36l4.59,7.61c4.68,7.74,3.06,16.51-4,21.82a60.09,60.09,0,0,1-16.37,8.54c-11,3.81-15.18,7.77-10.76,21.23,4.69,14.29,2.35,22.13-8.35,28l-3.32,1.81,2.07,3.17c5.23,8,6.9,12.39,3,17.17-7.88,9.65-10,19.94-6.83,33.38,4.69,19.95.86,34.82-11.7,45.45a40.76,40.76,0,0,1-21.88,9.29c-.75.08-4.66.17-10.12.26a41.15,41.15,0,0,0,9.23-6c18.62-16.27,18.28-35.21,18-49,0-2.07-.08-4,0-5.81a57.6,57.6,0,0,1,6.41-25.82c3.69-7.12,2.75-14.23,1.23-20.51,6.21-7.59,8.8-16.89,8.14-29.08a121.57,121.57,0,0,0-3.73-13.41c-2.6-5.2-1.14-8.25,2.41-14.65,7.1-12.81,17.84-32.17-13.62-88.62q-1.37-2.46-2.51-4.48c-3.48-6.16-5.39-9.56-5.62-11.86-.19-1.95.83-4.07,3.34-9.1,1.42-2.84,3.17-6.36,5.28-11.11,2.57-4.18,7.3-16.71-1.91-45-3.54-10.89-6.55-21.62-9.45-32-3.71-13.28-7.55-27-12.49-40.88s-16.16-39-24.29-52.88c-.3-.52-.61-1-.91-1.52a70.93,70.93,0,0,0-5.44-7.6L368,69.13c1.13,1.5,2.24,3.11,3.3,4.82.28.46.56.92.83,1.39,7.94,13.52,18.88,38.09,23.74,51.69s8.49,26.64,12.34,40.41c2.92,10.45,5.94,21.25,9.53,32.28,8.85,27.22,3.69,37.5,2.57,39.29a3.82,3.82,0,0,0-.3.55c-2.09,4.71-3.84,8.21-5.24,11-5.71,11.43-5.94,12.65,2.44,27.51q1.14,2,2.5,4.45c29.57,53.06,20.34,69.69,13.6,81.83-3.53,6.38-6.87,12.4-2.6,21.05.5,1.36,2.77,9.47,3.07,10.95.56,10.9-1.85,18.94-7.59,25.29L425,423.06l.48,1.83c1.85,7.12,2.41,12.23-.22,17.32A64.28,64.28,0,0,0,418,471.1c0,1.91,0,3.93,0,6.07.23,13.16.53,29.53-15.65,43.66-5.28,4.62-12.39,7.22-19.29,9.34a48.41,48.41,0,0,1-7.47,1.35l-.46.05-.42.17c-.59.23-1.3.46-2.09.68l-4.73.06c4.73-2.18,9.27-4.93,12.18-8.58,12.82-16.14,17.28-37.56,19.95-50.36.55-2.64,1-4.91,1.46-6.6,6.39-24.67,8.31-73.4,8.52-79.21,14.62-45.09-.74-81.43-9.94-103.18-3.22-7.62-6-14.2-6.18-18.12-.38-8.71,1.79-16.69,3.9-24.4,2.2-8.07,4.28-15.7,2.75-22.78-1.22-5.59-2.54-12.1-3.93-19-4.85-23.93-10.89-53.71-18-72-3.81-9.82-11.94-29.81-19.06-44.8l-4.31,7.29c6.49,14.12,13.43,31.22,16.86,40C379,148.52,385,178,389.81,201.64c1.4,6.92,2.73,13.46,3.95,19.08,1.17,5.42-.61,11.93-2.67,19.47C389,248,386.53,256.94,387,266.74c.23,5.17,3.1,11.95,6.73,20.53,9.41,22.27,23.64,55.94,9.58,98.75l-.16.48,0,.5c0,.53-1.85,53.23-8.32,78.18-.48,1.86-1,4.21-1.53,6.93-2.54,12.2-6.8,32.61-18.58,47.44-3.46,4.36-11.41,7.52-17.5,9.73l7.07,12c3.46-.57,6.72-1.2,9.38-1.9,15.21-.17,33.43-.42,35.15-.64a47.56,47.56,0,0,0,25.53-10.89c14.56-12.32,19.27-29.95,14-52.39-2.68-11.42-1.11-19.35,5.44-27.36s3.12-16.24-.61-22.37c14.22-9.62,12.08-23.29,8.45-34.35-2.9-8.85-1.95-9.56,6.4-12.44a67.24,67.24,0,0,0,18.28-9.56C496.19,361.94,498.58,349.18,492.05,338.38Z"/><path class="cls-1" d="M260.23,364.34l7,11.89c.31-39.15-2.91-71.91-9.68-96.36-1.81-6.55-1.8-13.76-1.31-21.38l-7.16,12.12a52.06,52.06,0,0,0,1.74,11.12C256.73,303.12,259.86,331.11,260.23,364.34Z"/><path class="cls-1" d="M234.28,320.18c0-7.19.06-15.5.08-24.66l-7,11.9v.94Z"/><path class="cls-1" d="M745.68,453,740.44,462C729.7,415.62,722,347.05,744.5,279.19c2.2-6.64,2.42-29.23,2.57-45.73.1-10.57.19-19.7.7-24.17,1.29-11.07,2.28-22.39,3.23-33.34.09-1,.18-2,.27-3.06l6.11,10.35c-.79,8.89-1.62,17.93-2.67,26.85-.46,4.1-.55,13.49-.65,23.43-.18,18.84-.38,40.19-2.93,47.87-15.13,45.63-18.16,97-9,152.7C743.2,440.71,744.41,447,745.68,453Z"/><path class="cls-1" d="M780.42,245.08c1.69,11.3,2.86,24.48-1.27,36.59-8.57,25.12-16.53,67.34-9.9,131.27l-6,10.17c-5.62-45.83-6.1-98.65,9.27-143.7,3.64-10.68,2.54-22.83,1-33.3-1.78-12-1.2-24.29-.39-34.72,0-.43.07-.87.11-1.31l6.3,10.68A127.14,127.14,0,0,0,780.42,245.08Z"/><path class="cls-1" d="M728.6,203.46c-6.69,56-15,125.73-18.38,136.65-.19.64-14.31,63,17,144.39l-4.47,7.62a315.19,315.19,0,0,1-22.22-96.27c-2.11-32.49,1.93-54.17,3-57.79,3.17-10.32,11.81-82.63,18.12-135.42,3.65-30.53,6.81-56.94,8.23-65.95l5.7,9.65C733.94,158.79,731.42,179.9,728.6,203.46Z"/><path class="cls-1" d="M713,131.13l-.8,2.93c-14.54,52.92-21.36,91.56-18.71,106,4.76,26,.34,42.39-4.78,61.39-5.69,21.13-12.14,45.08-7.86,89.7.31,3.28.65,7.2,1,11.54,1.53,17.83,3.62,42.25,7.2,57.33a159.88,159.88,0,0,0,22.19,51.6l-3.93,6.69a166.86,166.86,0,0,1-25.06-56.67c-3.7-15.59-5.82-40.31-7.36-58.35-.37-4.31-.71-8.21-1-11.47-4.4-45.88,2.23-70.48,8.07-92.18,4.9-18.19,9.13-33.9,4.65-58.32-3.87-21.14,10.15-77.45,18.85-109.13l.8-2.91c1.74-6.35,3.88-14.16,6.25-22l4.86,8.23C715.74,121.1,714.26,126.51,713,131.13Z"/><path class="cls-1" d="M566,338.38l4.59-7.6c10.8-17.94,22-36.49,34.26-53.8,9.39-13.23,10.68-23.65,4.46-36-7.65-15.15-4.56-31.29-1.57-42.1,7.23-26.12,15.47-51.7,24-77.79,4.43-13.58,16.95-40.41,26.44-54.65a73.6,73.6,0,0,1,19-19l3.57,6A66.46,66.46,0,0,0,664,70.36c-9.05,13.56-21.41,40.05-25.62,52.94-8.49,26-16.7,51.51-23.89,77.48-4.27,15.42-3.93,27.2,1.07,37.09,7.37,14.59,5.83,27.9-5,43.15-12.13,17.1-23.24,35.53-34,53.36L572,342c-4.68,7.74-3.06,16.51,4,21.82a59.88,59.88,0,0,0,16.36,8.54c11,3.81,15.18,7.77,10.76,21.23-4.69,14.29-2.35,22.13,8.35,28l3.32,1.81-2.07,3.17c-5.23,8-6.9,12.39-3,17.17,7.88,9.65,10,19.94,6.83,33.38-4.69,19.95-.86,34.82,11.7,45.45a40.76,40.76,0,0,0,21.88,9.29c.76.08,4.66.17,10.12.26a41.37,41.37,0,0,1-9.23-6c-18.62-16.27-18.28-35.21-18-49,0-2.07.07-4,0-5.81a57.6,57.6,0,0,0-6.41-25.82c-3.69-7.12-2.74-14.23-1.23-20.51-6.21-7.59-8.8-16.89-8.14-29.08A119.42,119.42,0,0,1,621,382.42c2.6-5.2,1.14-8.25-2.41-14.65-7.11-12.81-17.85-32.17,13.61-88.62q1.37-2.46,2.51-4.48c3.48-6.16,5.39-9.56,5.62-11.86.19-1.95-.82-4.07-3.34-9.1-1.41-2.84-3.17-6.36-5.28-11.11-2.57-4.18-7.3-16.71,1.91-45,3.55-10.89,6.55-21.62,9.45-32,3.71-13.28,7.55-27,12.49-40.88s16.16-39,24.29-52.88c.31-.52.61-1,.92-1.52a70.89,70.89,0,0,1,5.43-7.6L690,69.13c-1.13,1.5-2.24,3.11-3.3,4.82-.28.46-.56.92-.83,1.39C677.93,88.86,667,113.43,662.13,127s-8.49,26.64-12.34,40.41c-2.92,10.45-5.94,21.25-9.53,32.28-8.85,27.22-3.69,37.5-2.57,39.29.18.28.27.48.31.55,2.08,4.71,3.83,8.21,5.24,11,5.7,11.43,5.93,12.65-2.45,27.51q-1.14,2-2.5,4.45c-29.57,53.06-20.34,69.69-13.6,81.83,3.53,6.38,6.88,12.4,2.6,21.05-.5,1.36-2.77,9.47-3.07,10.95-.56,10.9,1.85,18.94,7.6,25.29l1.26,1.39-.47,1.83c-1.86,7.12-2.42,12.23.22,17.32A64.54,64.54,0,0,1,640,471.1c0,1.91,0,3.93,0,6.07-.23,13.16-.53,29.53,15.65,43.66,5.28,4.62,12.39,7.22,19.29,9.34a48.41,48.41,0,0,0,7.47,1.35l.46.05.43.17c.59.23,1.29.46,2.08.68l4.74.06c-4.74-2.18-9.28-4.93-12.18-8.58-12.83-16.14-17.29-37.56-20-50.36-.54-2.64-1-4.91-1.46-6.6-6.39-24.67-8.31-73.4-8.52-79.21-14.62-45.09.75-81.43,9.94-103.18,3.22-7.62,6-14.2,6.18-18.12.39-8.71-1.79-16.69-3.89-24.4-2.21-8.07-4.28-15.7-2.76-22.78,1.22-5.59,2.54-12.1,3.93-19,4.85-23.93,10.89-53.71,18-72,3.81-9.82,11.94-29.81,19.06-44.8l4.31,7.29c-6.49,14.12-13.43,31.22-16.85,40C679,148.52,673,178,668.23,201.64c-1.4,6.92-2.72,13.46-4,19.08-1.16,5.42.61,11.93,2.67,19.47,2.14,7.85,4.57,16.75,4.13,26.55-.23,5.17-3.1,11.95-6.72,20.53-9.42,22.27-23.65,55.94-9.58,98.75l.15.48,0,.5c0,.53,1.85,53.23,8.32,78.18.48,1.86,1,4.21,1.54,6.93,2.54,12.2,6.79,32.61,18.58,47.44,3.46,4.36,11.4,7.52,17.49,9.73l-7.06,12c-3.47-.57-6.73-1.2-9.39-1.9-15.21-.17-33.43-.42-35.15-.64a47.56,47.56,0,0,1-25.53-10.89c-14.56-12.32-19.27-29.95-14-52.39,2.68-11.42,1.11-19.35-5.44-27.36s-3.12-16.24.61-22.37c-14.22-9.62-12.07-23.29-8.45-34.35,2.91-8.85,1.95-9.56-6.4-12.44a67.24,67.24,0,0,1-18.28-9.56C561.85,361.94,559.46,349.18,566,338.38Z"/><path class="cls-1" d="M797.81,364.34l-7,11.89c-.31-39.15,2.91-71.91,9.68-96.36,1.81-6.55,1.8-13.76,1.31-21.38L809,270.61a52.68,52.68,0,0,1-1.73,11.12C801.31,303.12,798.18,331.11,797.81,364.34Z"/><path class="cls-1" d="M823.76,320.18c0-7.19-.06-15.5-.08-24.66l7,11.9c0,.31,0,.62,0,.94Z"/></svg>