<svg width="390" height="844" viewBox="0 0 390 844" fill="none" xmlns="http://www.w3.org/2000/svg">
<path d="M294.576 494.652L192.385 526.877L279.548 640.737L294.576 494.652Z" fill="#4186B6" stroke="#4186B6" stroke-width="0.212123"/>
<path d="M192.385 526.877L152.024 608.082L279.548 640.736L192.385 526.877Z" fill="#4F94C4" stroke="#4F94C4" stroke-width="0.212123"/>
<path d="M152.024 608.082L211.707 729.676L279.548 640.736L152.024 608.082Z" fill="#559ACA" stroke="#559ACA" stroke-width="0.212123"/>
<path d="M279.548 640.737L440.562 608.082L294.576 494.652L279.548 640.737Z" fill="#5DA3D3" stroke="#5DA3D3" stroke-width="0.212123"/>
<path d="M211.707 729.676L298.011 739.988L279.548 640.737L211.707 729.676Z" fill="#498FBF" stroke="#498FBF" stroke-width="0.212123"/>
<path d="M298.011 739.988L440.562 608.082L279.548 640.736L298.011 739.988Z" fill="#66ACDC" stroke="#66ACDC" stroke-width="0.212123"/>
<path d="M152.024 608.082L71.7318 631.284L211.707 729.676L152.024 608.082Z" fill="#69AFDF" stroke="#69AFDF" stroke-width="0.212123"/>
<path d="M48.1164 488.207L71.7319 631.284L152.024 608.082L48.1164 488.207Z" fill="#5FA5D5" stroke="#5FA5D5" stroke-width="0.212123"/>
<path d="M440.562 608.082L468.042 517.854L294.576 494.652L440.562 608.082Z" fill="#599ECE" stroke="#599ECE" stroke-width="0.212123"/>
<path d="M294.576 494.652L152.024 375.207L192.385 526.877L294.576 494.652Z" fill="#377DAD" stroke="#377DAD" stroke-width="0.212123"/>
<path d="M192.385 526.877L48.1164 488.207L152.024 608.082L192.385 526.877Z" fill="#5CA2D2" stroke="#5CA2D2" stroke-width="0.212123"/>
<path d="M325.061 350.287L152.024 375.207L294.576 494.652L325.061 350.287Z" fill="#3076A7" stroke="#3076A7" stroke-width="0.212123"/>
<path d="M468.042 517.854L325.061 350.287L294.576 494.652L468.042 517.854Z" fill="#4F93C4" stroke="#4F93C4" stroke-width="0.212123"/>
<path d="M79.8899 397.12L48.1164 488.207L192.385 526.877L79.8899 397.12Z" fill="#5298C8" stroke="#5298C8" stroke-width="0.212123"/>
<path d="M152.024 375.207L79.8899 397.12L192.385 526.877L152.024 375.207Z" fill="#478CBC" stroke="#478CBC" stroke-width="0.212123"/>
<path d="M298.011 739.988L444.426 769.205L440.562 608.082L298.011 739.988Z" fill="#62A8D8" stroke="#62A8D8" stroke-width="0.212123"/>
<path d="M323.773 870.604L444.426 769.205L298.011 739.988L323.773 870.604Z" fill="#559ACA" stroke="#559ACA" stroke-width="0.212123"/>
<path d="M211.707 729.676L323.773 870.604L298.011 739.988L211.707 729.676Z" fill="#4186B7" stroke="#4186B7" stroke-width="0.212123"/>
<path d="M171.346 884.783L323.773 870.604L211.707 729.676L171.346 884.783Z" fill="#3177A7" stroke="#3177A7" stroke-width="0.212123"/>
<path d="M468.042 517.854L467.183 336.108L325.061 350.287L468.042 517.854Z" fill="#599ECE" stroke="#599ECE" stroke-width="0.212123"/>
<path d="M71.7318 631.284L21.4954 757.174L211.707 729.676L71.7318 631.284Z" fill="#64AADA" stroke="#64AADA" stroke-width="0.212123"/>
<path d="M-48.4922 606.364L21.4953 757.174L71.7318 631.284L-48.4922 606.364Z" fill="#5398C9" stroke="#5398C9" stroke-width="0.212123"/>
<path d="M48.1164 488.207L-48.4922 606.364L71.7318 631.284L48.1164 488.207Z" fill="#4C91C2" stroke="#4C91C2" stroke-width="0.212123"/>
<path d="M-67.8139 483.481L-48.4922 606.364L48.1164 488.207L-67.8139 483.481Z" fill="#387EAF" stroke="#387EAF" stroke-width="0.212123"/>
<path d="M152.024 375.207L70.4437 252.324L79.8899 397.12L152.024 375.207Z" fill="#599ECF" stroke="#599ECF" stroke-width="0.212123"/>
<path d="M-57.9383 396.26L-67.8139 483.481L48.1164 488.207L-57.9383 396.26Z" fill="#2B73A3" stroke="#2B73A3" stroke-width="0.212123"/>
<path d="M325.061 350.287L158.465 257.051L152.024 375.207L325.061 350.287Z" fill="#4489B9" stroke="#4489B9" stroke-width="0.212123"/>
<path d="M276.113 218.811L158.465 257.05L325.061 350.287L276.113 218.811Z" fill="#478CBC" stroke="#478CBC" stroke-width="0.212123"/>
<path d="M52.4101 867.773L171.346 884.783L211.707 729.676L52.4101 867.773Z" fill="#4C91C1" stroke="#4C91C1" stroke-width="0.212123"/>
<path d="M-57.9383 396.26L48.1164 488.207L79.8899 397.12L-57.9383 396.26Z" fill="#337AAA" stroke="#337AAA" stroke-width="0.212123"/>
<path d="M448.72 257.91L276.113 218.811L325.061 350.287L448.72 257.91Z" fill="#62A7D7" stroke="#62A7D7" stroke-width="0.212123"/>
<path d="M467.183 336.108L448.72 257.91L325.061 350.287L467.183 336.108Z" fill="#478CBC" stroke="#478CBC" stroke-width="0.212123"/>
<path d="M70.4437 252.324L-57.9383 396.26L79.8899 397.12L70.4437 252.324Z" fill="#4489B9" stroke="#4489B9" stroke-width="0.212123"/>
<path d="M21.4954 757.174L52.4101 867.773L211.707 729.676L21.4954 757.174Z" fill="#559BCB" stroke="#559BCB" stroke-width="0.212123"/>
<path d="M-48.4922 882.205L52.4101 867.773L21.4954 757.174L-48.4922 882.205Z" fill="#357BAB" stroke="#357BAB" stroke-width="0.212123"/>
<path d="M158.465 257.051L70.4437 252.324L152.024 375.207L158.465 257.051Z" fill="#62A8D8" stroke="#62A8D8" stroke-width="0.212123"/>
<path d="M77.3137 130.301L70.4437 252.324L158.465 257.051L77.3137 130.301Z" fill="#6EB4E4" stroke="#6EB4E4" stroke-width="0.212123"/>
<path d="M-48.4922 606.364L-78.5482 741.707L21.4954 757.174L-48.4922 606.364Z" fill="#458ABA" stroke="#458ABA" stroke-width="0.212123"/>
<path d="M323.773 870.604L434.121 914L444.426 769.205L323.773 870.604Z" fill="#498EBE" stroke="#498EBE" stroke-width="0.212123"/>
<path d="M-78.5482 741.707L-48.4922 882.205L21.4954 757.174L-78.5482 741.707Z" fill="#357BAC" stroke="#357BAC" stroke-width="0.212123"/>
<path d="M276.113 218.811L158.894 101.084L158.465 257.051L276.113 218.811Z" fill="#579CCC" stroke="#579CCC" stroke-width="0.212123"/>
<path d="M448.72 257.91L296.723 142.332L276.113 218.811L448.72 257.91Z" fill="#599ECF" stroke="#599ECF" stroke-width="0.212123"/>
<path d="M448.72 257.91L468.471 123.856L296.722 142.332L448.72 257.91Z" fill="#63A8D8" stroke="#63A8D8" stroke-width="0.212123"/>
<path d="M70.4437 252.324L-87.1356 243.731L-57.9383 396.26L70.4437 252.324Z" fill="#4086B6" stroke="#4086B6" stroke-width="0.212123"/>
<path d="M158.894 101.084L77.3137 130.301L158.465 257.051L158.894 101.084Z" fill="#65ABDB" stroke="#65ABDB" stroke-width="0.212123"/>
<path d="M-90.9999 141.042L-87.1355 243.731L70.4437 252.324L-90.9999 141.042Z" fill="#4D92C2" stroke="#4D92C2" stroke-width="0.212123"/>
<path d="M296.722 142.332L158.894 101.084L276.113 218.811L296.722 142.332Z" fill="#4388B9" stroke="#4388B9" stroke-width="0.212123"/>
<path d="M296.722 142.331L279.548 -20.0798L158.894 101.084L296.722 142.331Z" fill="#347BAB" stroke="#347BAB" stroke-width="0.212123"/>
<path d="M40.8172 -7.61963L-90.9999 141.043L77.3137 130.301L40.8172 -7.61963Z" fill="#3E83B3" stroke="#3E83B3" stroke-width="0.212123"/>
<path d="M77.3137 130.301L-90.9999 141.043L70.4438 252.324L77.3137 130.301Z" fill="#5095C5" stroke="#5095C5" stroke-width="0.212123"/>
<path d="M416.088 -17.0722L279.548 -20.0798L296.722 142.331L416.088 -17.0722Z" fill="#478DBD" stroke="#478DBD" stroke-width="0.212123"/>
<path d="M416.088 -17.072L296.722 142.332L468.471 123.856L416.088 -17.072Z" fill="#569BCB" stroke="#569BCB" stroke-width="0.212123"/>
<path d="M158.894 101.084L40.8171 -7.61963L77.3137 130.301L158.894 101.084Z" fill="#5399C9" stroke="#5399C9" stroke-width="0.212123"/>
<path d="M279.548 -20.0798L201.831 -45L158.894 101.084L279.548 -20.0798Z" fill="#3279A9" stroke="#3279A9" stroke-width="0.212123"/>
<path d="M201.831 -45L40.8171 -7.61963L158.894 101.084L201.831 -45Z" fill="#4B90C0" stroke="#4B90C0" stroke-width="0.212123"/>
<path d="M40.8171 -7.6197L-69.5314 -27.384L-90.9999 141.042L40.8171 -7.6197Z" fill="#2D74A4" stroke="#2D74A4" stroke-width="0.212123"/>
</svg>
