<?xml version="1.0" encoding="UTF-8"?>
<svg width="20px" height="19px" viewBox="0 0 20 19" version="1.1" xmlns="http://www.w3.org/2000/svg" xmlns:xlink="http://www.w3.org/1999/xlink">
    <!-- Generator: Sketch 63.1 (92452) - https://sketch.com -->
    <title>Group 2</title>
    <desc>Created with Sketch.</desc>
    <g id="Page-1" stroke="none" stroke-width="1" fill="none" fill-rule="evenodd">
        <g id="Wallet" transform="translate(-21.000000, -309.000000)" fill="#ffffff" fill-rule="nonzero">
            <g id="Group-2" transform="translate(21.000000, 309.000000)">
                <g id="收益管理">
                    <path d="M8.68687856,12.014562 L8.68687856,10.9697065 C8.68754035,10.8671304 8.64725525,10.7685282 8.57495508,10.6957616 C8.50265491,10.622995 8.40431384,10.5820766 8.3017356,10.5820787 L4.27140104,10.5820787 L4.27140104,16.9493646 L11.8674138,16.9493646 C11.9469491,16.9496891 12.0246353,16.925385 12.0898028,16.8797871 L18.5452956,12.3114948 C18.6362695,12.2477395 18.6952836,12.1478075 18.7071856,12.0373569 C18.7190876,11.9269063 18.6827182,11.8166958 18.6074154,11.7350228 L17.5228032,10.5535036 C17.4060039,10.4259848 17.2185322,10.3919452 17.0643588,10.4702631 L11.9655632,13.0755687 C11.735822,13.1925224 11.4816491,13.2534046 11.2238524,13.2532314 L8.68687856,13.2532314 L8.68687856,13.2495043 C8.66295028,13.252128 8.63889083,13.2533724 8.61481955,13.2532314 L5.83682076,13.2532314 C5.49378532,13.2531708 5.21573233,12.9750686 5.21573233,12.6320331 C5.21573233,12.2889977 5.49378532,12.0108955 5.83682076,12.0108348 L8.61481955,12.0108348 C8.63966748,12.0108348 8.66327303,12.0120773 8.68687856,12.014562 L8.68687856,12.014562 Z M4.15585815,18.1930003 C3.95277966,18.6239664 3.51908724,18.8988965 3.04267081,18.8986817 L1.23001417,18.8986817 C0.551890089,18.8986817 0.00196960089,18.3493175 0.0012839319,17.6711938 L0.0012839319,9.50864809 C0.00196960139,8.8298382 0.552446331,8.27991785 1.23125657,8.27991785 L3.04515559,8.27991785 C3.66635389,8.27991785 4.17946368,8.73960459 4.26270427,9.33843975 L8.29925082,9.33843975 C9.19998836,9.33843975 9.92679036,10.0677266 9.92679036,10.9684641 L9.92679036,12.0095924 L11.2238524,12.0095924 C11.2859722,12.0095924 11.3480921,11.9946837 11.4015151,11.967351 L16.497826,9.36328768 C17.1501168,9.02919214 17.9452851,9.17265821 18.4396919,9.71364354 L19.5230617,10.8939203 C19.8397872,11.238687 19.9927087,11.7031468 19.9427579,12.1686401 C19.8928072,12.6341335 19.6448224,13.0555732 19.2621584,13.3252904 L12.8066657,17.8923403 C12.5319172,18.0864046 12.2037881,18.1905726 11.8674138,18.1905155 L4.15585815,18.1905155 L4.15585815,18.1930003 Z M5.73245944,7.00770375 C5.7324987,7.22966269 5.61410756,7.43477801 5.42189202,7.54576882 C5.22967647,7.65675963 4.99284582,7.65675963 4.80063028,7.54576882 C4.60841473,7.43477801 4.49006284,7.22966269 4.49006284,7.00770375 C4.49006284,6.45111007 4.55466746,5.90072837 4.68387671,5.36152824 C5.44658825,2.22887331 8.24883146,0.0212354434 11.4729884,0.0129686181 C14.6971453,0.00474811245 17.510641,2.19802741 18.2893619,5.32674114 C18.4235407,5.87339564 18.4931149,6.4374437 18.4931149,7.00770375 C18.4931149,7.3507821 18.214995,7.62890205 17.8719166,7.62890205 C17.5288383,7.62890205 17.2507183,7.3507821 17.2507183,7.00770375 C17.2440091,4.09469978 15.0643122,1.64486628 12.1718577,1.29940414 C9.27940315,0.953942001 6.58405332,2.8215212 5.8914862,5.65100665 C5.78575091,6.09548992 5.73237922,6.55081719 5.73245944,7.00770375 L5.73245944,7.00770375 Z M1.24243814,9.52355684 L1.24243814,17.6550426 L3.03148923,17.6550426 L3.03148923,9.52355684 L1.24243814,9.52355684 Z" id="Shape"></path>
                </g>
                <path d="M12.984375,7.359375 C12.984375,6.453125 12.3392857,6.13616071 11.7678571,5.859375 C11.3147321,5.63839286 10.921875,5.44642857 10.921875,5.00223214 C10.921875,4.609375 11.1875,4.35491071 11.6004464,4.35491071 C11.9754464,4.35491071 12.1808036,4.48883929 12.4508929,4.75223214 L12.5,4.79910714 L12.9084821,4.34821429 L12.8660714,4.30357143 C12.6361607,4.0625 12.3348214,3.80803571 11.84375,3.73883929 L11.84375,3 L11.2790179,3 L11.2790179,3.75446429 C10.625,3.87276786 10.2053571,4.36607143 10.2053571,5.02901786 C10.2053571,5.81919643 10.8080357,6.125 11.3415179,6.39732143 C11.8169643,6.63839286 12.2678571,6.86830357 12.2678571,7.40178571 C12.2678571,7.84821429 11.9955357,8.09375 11.5022321,8.09375 C11.1361607,8.09375 10.7790179,7.94196429 10.4107143,7.62946429 L10.3571429,7.58258929 L10,8.09598214 L10.0424107,8.13392857 C10.3705357,8.43526786 10.8392857,8.65401786 11.2790179,8.70982143 L11.2790179,9.44866071 L11.84375,9.44866071 L11.84375,8.69419643 C12.5491071,8.56919643 12.984375,8.0625 12.984375,7.359375 L12.984375,7.359375 Z" id="Path"></path>
            </g>
        </g>
    </g>
</svg>