<?xml version="1.0" encoding="UTF-8"?>
<svg width="21px" height="22px" viewBox="0 0 21 22" version="1.1" xmlns="http://www.w3.org/2000/svg" xmlns:xlink="http://www.w3.org/1999/xlink">
    <!-- Generator: Sketch 59.1 (86144) - https://sketch.com -->
    <title>Icons / Wallet / Outline Copy 2</title>
    <desc>Created with Sketch.</desc>
    <g id="Symbols" stroke="none" stroke-width="1" fill="none" fill-rule="evenodd" stroke-linecap="round">
        <g id="Menu-sidebar" transform="translate(-51.000000, -383.000000)" stroke="#FFFFFF">
            <g id="Outlined-/-Icon" transform="translate(49.000000, 381.000000)">
                <g id="icon" transform="translate(2.734375, 2.843750)">
                    <path d="M2.36207031,16.6219625 C1.06597656,14.9063687 0.292929688,12.7439 0.292929688,10.3933375 C0.292929688,4.82161875 4.63589844,0.304525 9.99371094,0.304525 C12.2886328,0.304525 14.3976172,1.13368125 16.0585547,2.5194" id="Stroke-1"></path>
                    <polyline id="Stroke-3" points="17.1619531 5.97435313 17.5439844 4.10316562 19.3420313 4.50007188"></polyline>
                    <polyline id="Stroke-5" points="2.77234375 14.8120781 2.39070312 16.6832656 0.592265625 16.2867656"></polyline>
                    <path d="M17.5724219,4.1647125 C18.8685156,5.8799 19.6415625,8.042775 19.6415625,10.3933375 C19.6415625,15.9650562 15.2985938,20.4817437 9.94078125,20.4817437 C7.64585938,20.4817437 5.536875,19.6529938 3.8759375,18.267275" id="Stroke-9"></path>
                    <g id="$" transform="translate(8.007812, 4.875000)" stroke-linejoin="round">
                        <path d="M3.756875,3.30581164 C3.756875,2.14393664 2.94710937,1.53923352 1.91585937,1.53923352 C0.884609375,1.53923352 0.0490625,2.14393664 0.0490625,3.30581164 C0.0490625,4.46768664 0.67015625,4.70930383 1.91585937,5.41038977 C3.15921875,6.11015539 3.78148437,6.35177258 3.78148437,7.51364758 C3.78148437,8.67420227 2.94710937,9.26570227 1.91585937,9.26570227 C0.884609375,9.26570227 0.0490625,8.67420227 0.0490625,7.51364758" id="Stroke-1"></path>
                        <line x1="1.915625" y1="0.494998359" x2="1.915625" y2="1.41525617" id="Stroke-3"></line>
                        <line x1="1.915625" y1="9.39033977" x2="1.915625" y2="10.3092773" id="Stroke-5"></line>
                    </g>
                </g>
            </g>
        </g>
    </g>
</svg>