<?xml version="1.0" encoding="UTF-8"?>
<svg viewBox="0 0 330 261" version="1.1" xmlns="http://www.w3.org/2000/svg"><g id="Web-App" stroke="none" stroke-width="1" fill="none" fill-rule="evenodd"><g id="Self-service-loan---4" transform="translate(-588.000000, -412.000000)" fill="#0132CC"><g id="编组" transform="translate(588.000000, 412.000000)"><path d="M263.575375,167.1 C263.275375,159.7 258.275375,152.35 248.475375,146.7 C228.375375,135.1 195.875375,135.1 175.900375,146.7 C165.900375,152.5 160.950375,160.1 161.000375,167.725 L161.000375,167.725 L161.000375,183.4 L161.000375,183.675 L161.000375,199.1 L161.000375,199.375 L161.000375,214.8 L161.000375,215.075 L161.000375,230.725 C161.050375,238.325 166.100375,245.925 176.150375,251.725 C186.200375,257.525 199.350375,260.425 212.475375,260.425 C225.600375,260.425 238.725375,257.525 248.700375,251.725 C258.675375,245.925 263.650375,238.325 263.600375,230.725 L263.600375,215.05 L263.600375,214.175 L263.600375,199.35 L263.600375,198.475 L263.600375,183.65 L263.600375,182.775 L263.600375,167.725 L263.600375,167.7 L263.600375,167.1 L263.575375,167.1 L263.575375,167.1 L263.575375,167.1 Z M185.350375,168.7 C186.825375,168.2 188.375375,167.7 189.925375,167.225 C191.050375,166.875 191.700375,166.8 192.175375,167.075 C192.450375,167.225 192.675375,167.5 192.900375,167.9 C193.925375,169.8 195.575375,171.475 197.675375,173.025 C198.050375,173.3 198.425375,173.55 198.825375,173.775 C199.950375,174.425 201.250375,174.95 202.750375,175.275 C206.600375,176.125 210.100375,174.6 209.675375,172.225 C209.525375,171.425 209.125375,170.625 208.625375,169.875 C207.275375,167.925 205.625375,166.05 204.725375,164 C203.275375,160.675 203.950375,157.675 208.525375,155.3 C213.775375,152.625 219.600375,152.45 225.800375,154.125 C228.325375,154.8 228.325375,154.825 230.250375,153.7 C230.925375,153.3 231.575375,152.925 232.250375,152.575 C233.725375,151.75 234.225375,151.75 235.750375,152.55 C235.900375,152.625 236.050375,152.725 236.200375,152.8 C236.500375,152.975 236.800375,153.15 237.100375,153.325 C237.350375,153.475 237.575375,153.6 237.775375,153.725 C240.250375,155.15 240.025375,155.275 237.125375,156.95 C234.950375,158.25 234.950375,158.25 236.800375,159.7 C238.225375,160.825 239.350375,162.05 240.225375,163.35 C240.700375,164.075 240.425375,164.6 239.250375,164.975 C237.525375,165.525 235.825375,166.1 234.050375,166.625 C232.975375,166.95 232.350375,167 231.875375,166.725 C231.600375,166.575 231.400375,166.325 231.175375,165.95 C230.075375,164.075 228.300375,162.475 225.925375,161.125 C225.625375,160.95 225.325375,160.8 225.025375,160.625 C224.275375,160.25 223.500375,159.9 222.550375,159.675 C219.200375,158.925 216.275375,160.175 216.675375,162.25 C216.875375,163.275 217.450375,164.3 218.150375,165.275 C219.375375,166.95 220.625375,168.625 221.500375,170.375 C224.325375,175.975 218.225375,181.475 208.500375,182.025 C205.000375,182.225 201.675375,181.775 198.575375,180.775 C197.250375,180.325 196.225375,180.375 195.200375,181.025 C194.175375,181.675 193.075375,182.275 191.975375,182.875 C191.025375,183.425 190.050375,183.45 189.075375,182.925 C188.475375,182.6 187.900375,182.275 187.325375,181.925 C186.750375,181.6 186.175375,181.25 185.600375,180.9 C184.625375,180.3 184.725375,179.7 185.675375,179.125 C186.450375,178.675 187.200375,178.2 188.000375,177.75 C189.675375,176.75 189.725375,176.675 188.300375,175.55 C186.500375,174.125 184.900375,172.625 183.900375,170.95 C183.075375,169.675 183.275375,169.375 185.350375,168.7 L185.350375,168.7 L185.350375,168.7 Z M256.550375,230.775 C256.575375,236 252.425375,241.4 245.175375,245.625 C236.575375,250.625 224.975375,253.375 212.500375,253.375 C200.025375,253.375 188.375375,250.625 179.725375,245.625 C172.375375,241.375 168.150375,235.95 168.125375,230.75 L168.125375,230 C170.325375,232.175 172.975375,234.225 176.175375,236.075 C186.225375,241.875 199.375375,244.775 212.500375,244.775 C225.625375,244.775 238.750375,241.875 248.725375,236.075 C251.850375,234.275 254.400375,232.275 256.550375,230.15 L256.550375,230.775 L256.550375,230.775 L256.550375,230.775 Z M256.550375,215.075 C256.575375,220.3 252.425375,225.7 245.175375,229.925 C236.575375,234.925 224.975375,237.675 212.500375,237.675 C200.025375,237.675 188.375375,234.925 179.725375,229.925 C172.375375,225.675 168.150375,220.25 168.125375,215.05 L168.125375,214.3 C170.325375,216.475 172.975375,218.525 176.175375,220.375 C186.225375,226.175 199.375375,229.075 212.500375,229.075 C225.625375,229.075 238.750375,226.175 248.725375,220.375 C251.850375,218.575 254.400375,216.575 256.550375,214.45 L256.550375,215.075 L256.550375,215.075 L256.550375,215.075 Z M256.550375,199.4 C256.575375,204.625 252.425375,210.025 245.175375,214.25 C236.575375,219.25 224.975375,222 212.500375,222 C200.025375,222 188.375375,219.25 179.725375,214.25 C172.375375,210 168.150375,204.575 168.125375,199.375 L168.125375,198.625 C170.325375,200.8 172.975375,202.85 176.175375,204.7 C186.225375,210.5 199.375375,213.4 212.500375,213.4 C225.625375,213.4 238.750375,210.5 248.725375,204.7 C251.850375,202.9 254.400375,200.9 256.550375,198.775 L256.550375,199.4 L256.550375,199.4 L256.550375,199.4 Z M256.550375,183.7 C256.575375,188.925 252.425375,194.325 245.175375,198.55 C236.575375,203.55 224.975375,206.3 212.500375,206.3 C200.025375,206.3 188.375375,203.55 179.725375,198.55 C172.375375,194.3 168.150375,188.875 168.125375,183.675 L168.125375,182.65 C170.325375,184.825 172.975375,186.875 176.175375,188.725 C196.275375,200.325 228.750375,200.325 248.750375,188.725 C251.875375,186.925 254.425375,184.925 256.575375,182.8 L256.575375,183.7 L256.550375,183.7 L256.550375,183.7 L256.550375,183.7 Z" id="coin"></path><path d="M329.575375,29.1 C329.275375,21.7 324.275375,14.35 314.475375,8.7 C294.375375,-2.9 261.875375,-2.9 241.900375,8.7 C231.900375,14.5 226.950375,22.1 227.000375,29.725 L227.000375,29.725 L227.000375,45.4 L227.000375,45.675 L227.000375,61.1 L227.000375,61.375 L227.000375,76.8 L227.000375,77.075 L227.000375,92.725 C227.050375,100.325 232.100375,107.925 242.150375,113.725 C252.200375,119.525 265.350375,122.425 278.475375,122.425 C291.600375,122.425 304.725375,119.525 314.700375,113.725 C324.675375,107.925 329.650375,100.325 329.600375,92.725 L329.600375,77.05 L329.600375,76.175 L329.600375,61.35 L329.600375,60.475 L329.600375,45.65 L329.600375,44.775 L329.600375,29.725 L329.600375,29.7 L329.600375,29.1 L329.575375,29.1 L329.575375,29.1 L329.575375,29.1 Z M251.350375,30.7 C252.825375,30.2 254.375375,29.7 255.925375,29.225 C257.050375,28.875 257.700375,28.8 258.175375,29.075 C258.450375,29.225 258.675375,29.5 258.900375,29.9 C259.925375,31.8 261.575375,33.475 263.675375,35.025 C264.050375,35.3 264.425375,35.55 264.825375,35.775 C265.950375,36.425 267.250375,36.95 268.750375,37.275 C272.600375,38.125 276.100375,36.6 275.675375,34.225 C275.525375,33.425 275.125375,32.625 274.625375,31.875 C273.275375,29.925 271.625375,28.05 270.725375,26 C269.275375,22.675 269.950375,19.675 274.525375,17.3 C279.775375,14.625 285.600375,14.45 291.800375,16.125 C294.325375,16.8 294.325375,16.825 296.250375,15.7 C296.925375,15.3 297.575375,14.925 298.250375,14.575 C299.725375,13.75 300.225375,13.75 301.750375,14.55 C301.900375,14.625 302.050375,14.725 302.200375,14.8 C302.500375,14.975 302.800375,15.15 303.100375,15.325 C303.350375,15.475 303.575375,15.6 303.775375,15.725 C306.250375,17.15 306.025375,17.275 303.125375,18.95 C300.950375,20.25 300.950375,20.25 302.800375,21.7 C304.225375,22.825 305.350375,24.05 306.225375,25.35 C306.700375,26.075 306.425375,26.6 305.250375,26.975 C303.525375,27.525 301.825375,28.1 300.050375,28.625 C298.975375,28.95 298.350375,29 297.875375,28.725 C297.600375,28.575 297.400375,28.325 297.175375,27.95 C296.075375,26.075 294.300375,24.475 291.925375,23.125 C291.625375,22.95 291.325375,22.8 291.025375,22.625 C290.275375,22.25 289.500375,21.9 288.550375,21.675 C285.200375,20.925 282.275375,22.175 282.675375,24.25 C282.875375,25.275 283.450375,26.3 284.150375,27.275 C285.375375,28.95 286.625375,30.625 287.500375,32.375 C290.325375,37.975 284.225375,43.475 274.500375,44.025 C271.000375,44.225 267.675375,43.775 264.575375,42.775 C263.250375,42.325 262.225375,42.375 261.200375,43.025 C260.175375,43.675 259.075375,44.275 257.975375,44.875 C257.025375,45.425 256.050375,45.45 255.075375,44.925 C254.475375,44.6 253.900375,44.275 253.325375,43.925 C252.750375,43.6 252.175375,43.25 251.600375,42.9 C250.625375,42.3 250.725375,41.7 251.675375,41.125 C252.450375,40.675 253.200375,40.2 254.000375,39.75 C255.675375,38.75 255.725375,38.675 254.300375,37.55 C252.500375,36.125 250.900375,34.625 249.900375,32.95 C249.075375,31.675 249.275375,31.375 251.350375,30.7 L251.350375,30.7 L251.350375,30.7 Z M322.550375,92.775 C322.575375,98 318.425375,103.4 311.175375,107.625 C302.575375,112.625 290.975375,115.375 278.500375,115.375 C266.025375,115.375 254.375375,112.625 245.725375,107.625 C238.375375,103.375 234.150375,97.95 234.125375,92.75 L234.125375,92 C236.325375,94.175 238.975375,96.225 242.175375,98.075 C252.225375,103.875 265.375375,106.775 278.500375,106.775 C291.625375,106.775 304.750375,103.875 314.725375,98.075 C317.850375,96.275 320.400375,94.275 322.550375,92.15 L322.550375,92.775 L322.550375,92.775 L322.550375,92.775 Z M322.550375,77.075 C322.575375,82.3 318.425375,87.7 311.175375,91.925 C302.575375,96.925 290.975375,99.675 278.500375,99.675 C266.025375,99.675 254.375375,96.925 245.725375,91.925 C238.375375,87.675 234.150375,82.25 234.125375,77.05 L234.125375,76.3 C236.325375,78.475 238.975375,80.525 242.175375,82.375 C252.225375,88.175 265.375375,91.075 278.500375,91.075 C291.625375,91.075 304.750375,88.175 314.725375,82.375 C317.850375,80.575 320.400375,78.575 322.550375,76.45 L322.550375,77.075 L322.550375,77.075 L322.550375,77.075 Z M322.550375,61.4 C322.575375,66.625 318.425375,72.025 311.175375,76.25 C302.575375,81.25 290.975375,84 278.500375,84 C266.025375,84 254.375375,81.25 245.725375,76.25 C238.375375,72 234.150375,66.575 234.125375,61.375 L234.125375,60.625 C236.325375,62.8 238.975375,64.85 242.175375,66.7 C252.225375,72.5 265.375375,75.4 278.500375,75.4 C291.625375,75.4 304.750375,72.5 314.725375,66.7 C317.850375,64.9 320.400375,62.9 322.550375,60.775 L322.550375,61.4 L322.550375,61.4 L322.550375,61.4 Z M322.550375,45.7 C322.575375,50.925 318.425375,56.325 311.175375,60.55 C302.575375,65.55 290.975375,68.3 278.500375,68.3 C266.025375,68.3 254.375375,65.55 245.725375,60.55 C238.375375,56.3 234.150375,50.875 234.125375,45.675 L234.125375,44.65 C236.325375,46.825 238.975375,48.875 242.175375,50.725 C262.275375,62.325 294.750375,62.325 314.750375,50.725 C317.875375,48.925 320.425375,46.925 322.575375,44.8 L322.575375,45.7 L322.550375,45.7 L322.550375,45.7 L322.550375,45.7 Z" id="coin-copy"></path><path d="M45.8039514,156.959388 C54.2039514,161.809388 67.8039514,161.809388 76.1539514,156.959388 C84.5289514,152.109388 84.4539514,144.234388 76.0539514,139.384388 C67.6539514,134.534388 54.0539514,134.534388 45.7039514,139.384388 C37.3539514,144.234388 37.4039514,152.084388 45.8039514,156.959388 L45.8039514,156.959388 L45.8039514,156.959388 Z M49.6539514,148.559388 C50.3039514,148.359388 50.9289514,148.134388 51.5539514,147.934388 C52.0289514,147.784388 52.3039514,147.759388 52.5039514,147.859388 C52.6289514,147.934388 52.7039514,148.034388 52.8039514,148.209388 C53.2289514,149.009388 53.9289514,149.709388 54.8039514,150.359388 C54.9539514,150.484388 55.1039514,150.584388 55.2789514,150.684388 C55.7539514,150.959388 56.2789514,151.159388 56.9289514,151.309388 C58.5539514,151.659388 60.0039514,151.034388 59.8289514,150.034388 C59.7789514,149.684388 59.6039514,149.384388 59.3789514,149.059388 C58.8289514,148.234388 58.1289514,147.459388 57.7539514,146.609388 C57.1539514,145.209388 57.4289514,143.959388 59.3539514,142.959388 C61.5539514,141.834388 63.9789514,141.784388 66.5789514,142.459388 C67.6289514,142.759388 67.6289514,142.759388 68.4539514,142.284388 C68.7289514,142.134388 69.0039514,141.959388 69.2789514,141.809388 C69.9039514,141.459388 70.1289514,141.459388 70.7539514,141.809388 C70.9539514,141.909388 71.1289514,142.034388 71.3289514,142.134388 C72.6289514,142.884388 72.6289514,142.884388 71.3539514,143.659388 C70.4289514,144.184388 70.4289514,144.184388 71.2039514,144.809388 C71.8039514,145.284388 72.2539514,145.784388 72.6289514,146.334388 C72.8289514,146.634388 72.7039514,146.859388 72.2289514,147.009388 C71.5039514,147.234388 70.7789514,147.484388 70.0539514,147.709388 C69.6039514,147.834388 69.3289514,147.859388 69.1289514,147.759388 C69.0289514,147.684388 68.9289514,147.584388 68.8289514,147.434388 C68.3539514,146.659388 67.6289514,146.009388 66.6539514,145.434388 C66.5289514,145.359388 66.3789514,145.284388 66.2289514,145.209388 C65.9039514,145.059388 65.6039514,144.909388 65.2039514,144.809388 C63.8039514,144.484388 62.5789514,145.009388 62.7539514,145.884388 C62.8289514,146.334388 63.0789514,146.734388 63.3789514,147.134388 C63.8789514,147.834388 64.4039514,148.534388 64.7789514,149.259388 C65.9539514,151.609388 63.4039514,153.909388 59.3289514,154.134388 C57.8539514,154.209388 56.4539514,154.034388 55.1789514,153.609388 C54.6289514,153.434388 54.2039514,153.459388 53.7539514,153.734388 C53.3289514,154.009388 52.8539514,154.259388 52.4289514,154.509388 C52.0289514,154.734388 51.6039514,154.759388 51.2039514,154.534388 C50.9039514,154.384388 50.6289514,154.209388 50.3289514,154.059388 C50.1289514,153.934388 49.9289514,153.834388 49.7289514,153.709388 C49.3039514,153.459388 49.3539514,153.209388 49.7539514,152.959388 C50.0789514,152.759388 50.4039514,152.584388 50.7039514,152.384388 C51.4289514,151.959388 51.4289514,151.934388 50.8289514,151.459388 C50.0789514,150.859388 49.4039514,150.234388 48.9789514,149.534388 C48.7039514,148.984388 48.7789514,148.859388 49.6539514,148.559388 L49.6539514,148.559388 L49.6539514,148.559388 Z M78.8789514,158.509388 C81.2039514,157.159388 84.9539514,157.159388 87.2789514,158.509388 C89.6039514,159.859388 89.6289514,162.034388 87.3039514,163.384388 C85.0039514,164.734388 81.2289514,164.734388 78.9039514,163.384388 C76.5789514,162.034388 76.5539514,159.859388 78.8789514,158.509388 L78.8789514,158.509388 L78.8789514,158.509388 Z M34.5789514,132.934388 C36.9039514,131.584388 40.6539514,131.584388 43.0039514,132.934388 C45.3289514,134.284388 45.3539514,136.459388 43.0289514,137.809388 C40.7289514,139.159388 36.9539514,139.159388 34.6289514,137.809388 C32.2789514,136.459388 32.2539514,134.284388 34.5789514,132.934388 L34.5789514,132.934388 L34.5789514,132.934388 Z M3.10395136,143.359388 L69.4289514,181.634388 C73.2539514,183.859388 79.4789514,183.859388 83.2789514,181.634388 L118.803951,160.984388 C122.603951,158.759388 122.603951,155.159388 118.778951,152.959388 L52.4539514,114.659388 C48.6289514,112.434388 42.4039514,112.459388 38.5789514,114.659388 L3.05395136,135.334388 C-0.746048636,137.534388 -0.721048636,141.134388 3.10395136,143.359388 L3.10395136,143.359388 L3.10395136,143.359388 Z M17.5039514,135.234388 C17.0789514,134.984388 16.6289514,134.784388 16.1539514,134.584388 L37.3789514,122.259388 C37.7039514,122.534388 38.0789514,122.784388 38.5039514,123.034388 C42.3789514,125.284388 48.6789514,125.259388 52.5289514,123.034388 C52.9789514,122.784388 53.3539514,122.509388 53.6789514,122.209388 L105.328951,152.034388 C104.628951,152.284388 104.003951,152.559388 103.403951,152.909388 C99.5289514,155.159388 99.5539514,158.784388 103.453951,161.034388 C104.053951,161.384388 104.703951,161.659388 105.403951,161.909388 L83.9789514,174.359388 C83.5539514,173.959388 83.0539514,173.584388 82.4539514,173.234388 C78.5539514,170.984388 72.2789514,170.984388 68.4289514,173.234388 C68.1289514,173.409388 67.8789514,173.584388 67.6289514,173.784388 L16.1289514,144.034388 C16.6289514,143.834388 17.1039514,143.609388 17.5289514,143.359388 C21.4039514,141.134388 21.3789514,137.484388 17.5039514,135.234388 L17.5039514,135.234388 L17.5039514,135.234388 Z M1.37895136,151.009388 C3.05395136,150.134388 5.67895136,150.259388 7.30395136,151.209388 L76.6039514,191.209388 L114.078951,169.434388 C115.703951,168.484388 118.353951,168.484388 119.978951,169.434388 C121.628951,170.384388 121.628951,171.909388 120.003951,172.859388 L80.1789514,196.009388 C78.2289514,197.134388 75.0539514,197.134388 73.1039514,196.009388 L71.7039514,195.209388 L70.7289514,194.634388 L1.22895136,154.534388 C-0.446048636,153.534388 -0.421048636,151.934388 1.37895136,151.009388 L1.37895136,151.009388 L1.37895136,151.009388 Z M120.078951,185.384388 L80.2539514,208.534388 C78.3039514,209.659388 75.1289514,209.659388 73.1789514,208.534388 L71.7789514,207.734388 L70.7789514,207.159388 L1.30395136,167.034388 C-0.396048636,166.059388 -0.346048636,164.459388 1.45395136,163.509388 C3.12895136,162.634388 5.75395136,162.759388 7.37895136,163.709388 L76.6789514,203.709388 L114.128951,181.959388 C115.753951,181.009388 118.403951,181.009388 120.053951,181.959388 C121.678951,182.909388 121.703951,184.434388 120.078951,185.384388 L120.078951,185.384388 L120.078951,185.384388 Z M1.37895136,176.034388 C3.05395136,175.159388 5.67895136,175.284388 7.30395136,176.234388 L76.6039514,216.259388 L114.078951,194.459388 C115.703951,193.509388 118.353951,193.509388 119.978951,194.459388 C121.628951,195.409388 121.628951,196.934388 120.003951,197.884388 L80.1789514,221.034388 C78.2289514,222.159388 75.0539514,222.159388 73.1039514,221.034388 L71.7039514,220.234388 L70.7289514,219.659388 L1.22895136,179.559388 C-0.446048636,178.584388 -0.421048636,176.984388 1.37895136,176.034388 L1.37895136,176.034388 L1.37895136,176.034388 Z M120.078951,210.409388 L80.2539514,233.559388 C78.3039514,234.684388 75.1289514,234.684388 73.1789514,233.559388 L71.7789514,232.759388 L70.7789514,232.184388 L1.30395136,192.059388 C-0.396048636,191.084388 -0.346048636,189.484388 1.45395136,188.534388 C3.12895136,187.659388 5.75395136,187.784388 7.37895136,188.734388 L76.6789514,228.734388 L114.153951,206.959388 C115.778951,206.009388 118.428951,206.009388 120.078951,206.959388 C121.678951,207.934388 121.703951,209.459388 120.078951,210.409388 L120.078951,210.409388 L120.078951,210.409388 Z" id="money-121"></path><path d="M111.803951,60.9593882 C120.203951,65.8093882 133.803951,65.8093882 142.153951,60.9593882 C150.528951,56.1093882 150.453951,48.2343882 142.053951,43.3843882 C133.653951,38.5343882 120.053951,38.5343882 111.703951,43.3843882 C103.353951,48.2343882 103.403951,56.0843882 111.803951,60.9593882 L111.803951,60.9593882 L111.803951,60.9593882 Z M115.653951,52.5593882 C116.303951,52.3593882 116.928951,52.1343882 117.553951,51.9343882 C118.028951,51.7843882 118.303951,51.7593882 118.503951,51.8593882 C118.628951,51.9343882 118.703951,52.0343882 118.803951,52.2093882 C119.228951,53.0093882 119.928951,53.7093882 120.803951,54.3593882 C120.953951,54.4843882 121.103951,54.5843882 121.278951,54.6843882 C121.753951,54.9593882 122.278951,55.1593882 122.928951,55.3093882 C124.553951,55.6593882 126.003951,55.0343882 125.828951,54.0343882 C125.778951,53.6843882 125.603951,53.3843882 125.378951,53.0593882 C124.828951,52.2343882 124.128951,51.4593882 123.753951,50.6093882 C123.153951,49.2093882 123.428951,47.9593882 125.353951,46.9593882 C127.553951,45.8343882 129.978951,45.7843882 132.578951,46.4593882 C133.628951,46.7593882 133.628951,46.7593882 134.453951,46.2843882 C134.728951,46.1343882 135.003951,45.9593882 135.278951,45.8093882 C135.903951,45.4593882 136.128951,45.4593882 136.753951,45.8093882 C136.953951,45.9093882 137.128951,46.0343882 137.328951,46.1343882 C138.628951,46.8843882 138.628951,46.8843882 137.353951,47.6593882 C136.428951,48.1843882 136.428951,48.1843882 137.203951,48.8093882 C137.803951,49.2843882 138.253951,49.7843882 138.628951,50.3343882 C138.828951,50.6343882 138.703951,50.8593882 138.228951,51.0093882 C137.503951,51.2343882 136.778951,51.4843882 136.053951,51.7093882 C135.603951,51.8343882 135.328951,51.8593882 135.128951,51.7593882 C135.028951,51.6843882 134.928951,51.5843882 134.828951,51.4343882 C134.353951,50.6593882 133.628951,50.0093882 132.653951,49.4343882 C132.528951,49.3593882 132.378951,49.2843882 132.228951,49.2093882 C131.903951,49.0593882 131.603951,48.9093882 131.203951,48.8093882 C129.803951,48.4843882 128.578951,49.0093882 128.753951,49.8843882 C128.828951,50.3343882 129.078951,50.7343882 129.378951,51.1343882 C129.878951,51.8343882 130.403951,52.5343882 130.778951,53.2593882 C131.953951,55.6093882 129.403951,57.9093882 125.328951,58.1343882 C123.853951,58.2093882 122.453951,58.0343882 121.178951,57.6093882 C120.628951,57.4343882 120.203951,57.4593882 119.753951,57.7343882 C119.328951,58.0093882 118.853951,58.2593882 118.428951,58.5093882 C118.028951,58.7343882 117.603951,58.7593882 117.203951,58.5343882 C116.903951,58.3843882 116.628951,58.2093882 116.328951,58.0593882 C116.128951,57.9343882 115.928951,57.8343882 115.728951,57.7093882 C115.303951,57.4593882 115.353951,57.2093882 115.753951,56.9593882 C116.078951,56.7593882 116.403951,56.5843882 116.703951,56.3843882 C117.428951,55.9593882 117.428951,55.9343882 116.828951,55.4593882 C116.078951,54.8593882 115.403951,54.2343882 114.978951,53.5343882 C114.703951,52.9843882 114.778951,52.8593882 115.653951,52.5593882 L115.653951,52.5593882 L115.653951,52.5593882 Z M144.878951,62.5093882 C147.203951,61.1593882 150.953951,61.1593882 153.278951,62.5093882 C155.603951,63.8593882 155.628951,66.0343882 153.303951,67.3843882 C151.003951,68.7343882 147.228951,68.7343882 144.903951,67.3843882 C142.578951,66.0343882 142.553951,63.8593882 144.878951,62.5093882 L144.878951,62.5093882 L144.878951,62.5093882 Z M100.578951,36.9343882 C102.903951,35.5843882 106.653951,35.5843882 109.003951,36.9343882 C111.328951,38.2843882 111.353951,40.4593882 109.028951,41.8093882 C106.728951,43.1593882 102.953951,43.1593882 100.628951,41.8093882 C98.2789514,40.4593882 98.2539514,38.2843882 100.578951,36.9343882 L100.578951,36.9343882 L100.578951,36.9343882 Z M69.1039514,47.3593882 L135.428951,85.6343882 C139.253951,87.8593882 145.478951,87.8593882 149.278951,85.6343882 L184.803951,64.9843882 C188.603951,62.7593882 188.603951,59.1593882 184.778951,56.9593882 L118.453951,18.6593882 C114.628951,16.4343882 108.403951,16.4593882 104.578951,18.6593882 L69.0539514,39.3343882 C65.2539514,41.5343882 65.2789514,45.1343882 69.1039514,47.3593882 L69.1039514,47.3593882 L69.1039514,47.3593882 Z M83.5039514,39.2343882 C83.0789514,38.9843882 82.6289514,38.7843882 82.1539514,38.5843882 L103.378951,26.2593882 C103.703951,26.5343882 104.078951,26.7843882 104.503951,27.0343882 C108.378951,29.2843882 114.678951,29.2593882 118.528951,27.0343882 C118.978951,26.7843882 119.353951,26.5093882 119.678951,26.2093882 L171.328951,56.0343882 C170.628951,56.2843882 170.003951,56.5593882 169.403951,56.9093882 C165.528951,59.1593882 165.553951,62.7843882 169.453951,65.0343882 C170.053951,65.3843882 170.703951,65.6593882 171.403951,65.9093882 L149.978951,78.3593882 C149.553951,77.9593882 149.053951,77.5843882 148.453951,77.2343882 C144.553951,74.9843882 138.278951,74.9843882 134.428951,77.2343882 C134.128951,77.4093882 133.878951,77.5843882 133.628951,77.7843882 L82.1289514,48.0343882 C82.6289514,47.8343882 83.1039514,47.6093882 83.5289514,47.3593882 C87.4039514,45.1343882 87.3789514,41.4843882 83.5039514,39.2343882 L83.5039514,39.2343882 L83.5039514,39.2343882 Z M67.3789514,55.0093882 C69.0539514,54.1343882 71.6789514,54.2593882 73.3039514,55.2093882 L142.603951,95.2093882 L180.078951,73.4343882 C181.703951,72.4843882 184.353951,72.4843882 185.978951,73.4343882 C187.628951,74.3843882 187.628951,75.9093882 186.003951,76.8593882 L146.178951,100.009388 C144.228951,101.134388 141.053951,101.134388 139.103951,100.009388 L137.703951,99.2093882 L136.728951,98.6343882 L67.2289514,58.5343882 C65.5539514,57.5343882 65.5789514,55.9343882 67.3789514,55.0093882 L67.3789514,55.0093882 L67.3789514,55.0093882 Z M186.078951,89.3843882 L146.253951,112.534388 C144.303951,113.659388 141.128951,113.659388 139.178951,112.534388 L137.778951,111.734388 L136.778951,111.159388 L67.3039514,71.0343882 C65.6039514,70.0593882 65.6539514,68.4593882 67.4539514,67.5093882 C69.1289514,66.6343882 71.7539514,66.7593882 73.3789514,67.7093882 L142.678951,107.709388 L180.128951,85.9593882 C181.753951,85.0093882 184.403951,85.0093882 186.053951,85.9593882 C187.678951,86.9093882 187.703951,88.4343882 186.078951,89.3843882 L186.078951,89.3843882 L186.078951,89.3843882 Z M67.3789514,80.0343882 C69.0539514,79.1593882 71.6789514,79.2843882 73.3039514,80.2343882 L142.603951,120.259388 L180.078951,98.4593882 C181.703951,97.5093882 184.353951,97.5093882 185.978951,98.4593882 C187.628951,99.4093882 187.628951,100.934388 186.003951,101.884388 L146.178951,125.034388 C144.228951,126.159388 141.053951,126.159388 139.103951,125.034388 L137.703951,124.234388 L136.728951,123.659388 L67.2289514,83.5593882 C65.5539514,82.5843882 65.5789514,80.9843882 67.3789514,80.0343882 L67.3789514,80.0343882 L67.3789514,80.0343882 Z M186.078951,114.409388 L146.253951,137.559388 C144.303951,138.684388 141.128951,138.684388 139.178951,137.559388 L137.778951,136.759388 L136.778951,136.184388 L67.3039514,96.0593882 C65.6039514,95.0843882 65.6539514,93.4843882 67.4539514,92.5343882 C69.1289514,91.6593882 71.7539514,91.7843882 73.3789514,92.7343882 L142.678951,132.734388 L180.153951,110.959388 C181.778951,110.009388 184.428951,110.009388 186.078951,110.959388 C187.678951,111.934388 187.703951,113.459388 186.078951,114.409388 L186.078951,114.409388 L186.078951,114.409388 Z" id="money-121"></path></g></g></g></svg>