<?xml version="1.0" encoding="UTF-8"?>
<svg width="23px" height="19px" viewBox="0 0 23 19" version="1.1" xmlns="http://www.w3.org/2000/svg" xmlns:xlink="http://www.w3.org/1999/xlink">
    <!-- Generator: Sketch 59.1 (86144) - https://sketch.com -->
    <title>Icons / Lightbulb / Outline</title>
    <desc>Created with Sketch.</desc>
    <g id="Symbols" stroke="none" stroke-width="1" fill="none" fill-rule="evenodd">
        <g id="Menu-sidebar" transform="translate(-50.000000, -325.000000)" stroke="#FFFFFF">
            <g id="Outlined-/-Icon" transform="translate(49.000000, 322.000000)">
                <g id="icon" transform="translate(1.562500, 3.515625)">
                    <path d="M21.7329688,3.13828125 C21.7329688,4.76367188 18.8157813,6.08125 15.2173438,6.08125 C11.6189063,6.08125 8.70171875,4.76367188 8.70171875,3.13828125 C8.70171875,1.51289062 11.6189063,0.1953125 15.2173438,0.1953125 C18.8157813,0.1953125 21.7329688,1.51289062 21.7329688,3.13828125 Z" id="Stroke-1" stroke-linecap="round"></path>
                    <path d="M21.1998828,4.31433594 C21.5428516,4.67214844 21.7330859,5.06707031 21.7330859,5.48191406 C21.7330859,7.10730469 18.8158984,8.42488281 15.2174609,8.42488281 C14.5268359,8.42488281 13.8616016,8.37644531 13.2373828,8.28660156" id="Stroke-3" stroke-linecap="round"></path>
                    <path d="M21.203125,6.66132813 C21.5441406,7.01835938 21.7328125,7.41210938 21.7328125,7.82578125 C21.7328125,9.45117188 18.8160156,10.76875 15.2175781,10.76875 C14.7460938,10.76875 14.2867188,10.7460938 13.84375,10.703125" id="Stroke-5" stroke-linecap="round"></path>
                    <path d="M21.1947266,8.99628906 C21.5408203,9.35566406 21.7330078,9.75253906 21.7330078,10.1693359 C21.7330078,11.7947266 18.8158203,13.1123047 15.2173828,13.1123047 C14.6697266,13.1123047 14.1384766,13.0818359 13.6302734,13.0244141" id="Stroke-7" stroke-linecap="round"></path>
                    <path d="M21.1935937,11.3389063 C21.5404687,11.6986719 21.7330469,12.0955469 21.7330469,12.513125 C21.7330469,14.1385156 18.8158594,15.4560938 15.2174219,15.4560938 C14.3010156,15.4560938 13.42875,15.3705469 12.6377344,15.21625" id="Stroke-9" stroke-linecap="round"></path>
                    <path d="M21.1908984,13.6798047 C21.5397266,14.0403516 21.7330859,14.4383984 21.7330859,14.8571484 C21.7330859,16.4821484 18.8158984,17.7997266 15.2174609,17.7997266 C13.5518359,17.7997266 12.0323047,17.5176953 10.8799609,17.0532422" id="Stroke-11" stroke-linecap="round"></path>
                    <g id="Group" transform="translate(0.000000, 4.882812)">
                        <path d="M12.85625,6.40625 C12.85625,9.94492187 9.978125,12.8132812 6.42773438,12.8132812 C2.87851563,12.8132812 1.77635684e-14,9.94492187 1.77635684e-14,6.40625 C1.77635684e-14,2.86757812 2.87851563,-4.97379915e-14 6.42773438,-4.97379915e-14 C9.978125,-4.97379915e-14 12.85625,2.86757812 12.85625,6.40625 Z" id="Stroke-14" stroke-linecap="square"></path>
                        <g id="$" transform="translate(4.296875, 1.953125)" stroke-linecap="round" stroke-linejoin="round">
                            <path d="M3.801875,2.68963965 C3.801875,1.74432715 3.05958984,1.25233496 2.11427734,1.25233496 C1.16896484,1.25233496 0.403046875,1.74432715 0.403046875,2.68963965 C0.403046875,3.63495215 0.972382813,3.83153418 2.11427734,4.40194434 C3.25402344,4.97128027 3.82443359,5.1678623 3.82443359,6.1131748 C3.82443359,7.05741309 3.05958984,7.53866309 2.11427734,7.53866309 C1.16896484,7.53866309 0.403046875,7.05741309 0.403046875,6.1131748" id="Stroke-1"></path>
                            <line x1="2.1140625" y1="0.402735352" x2="2.1140625" y2="1.15146582" id="Stroke-3"></line>
                            <line x1="2.1140625" y1="7.64006934" x2="2.1140625" y2="8.38772559" id="Stroke-5"></line>
                        </g>
                    </g>
                </g>
            </g>
        </g>
    </g>
</svg>