<svg id="Capa_1" enable-background="new 0 0 512 512" height="512" viewBox="0 0 512 512" width="512" xmlns="http://www.w3.org/2000/svg"><g><g><path d="m452.42 210.226c10.146-15.543 8.272-35.766-4.557-49.18-5.654-5.912-8.017-14.218-6.323-22.22 3.847-18.159-5.206-36.34-22.015-44.213-7.408-3.47-12.612-10.362-13.923-18.436-2.973-18.322-17.983-32.005-36.5-33.275-8.161-.56-15.504-5.106-19.643-12.162-9.392-16.009-28.326-23.346-46.056-17.842-7.812 2.426-16.3.838-22.709-4.245-14.541-11.536-34.85-11.536-49.39 0-6.408 5.085-14.898 6.671-22.709 4.245-17.726-5.505-36.665 1.832-46.056 17.842-4.139 7.056-11.481 11.602-19.642 12.162-18.518 1.27-33.527 14.954-36.501 33.275-1.31 8.074-6.515 14.966-13.922 18.436-16.808 7.874-25.861 26.055-22.016 44.213 1.695 8.002-.669 16.309-6.322 22.221-12.828 13.414-14.703 33.638-4.557 49.181 4.471 6.849 5.268 15.449 2.131 23.004-7.117 17.142-1.558 36.677 13.516 47.505 6.644 4.773 10.493 12.504 10.297 20.681-.443 18.555 11.797 34.763 29.765 39.415 5.304 1.373 9.912 4.442 13.214 8.628l-41.324 99.763c-5.791 13.981 7.316 28.378 21.769 23.941l45.242-13.884c1.322-.403 2.748.188 3.395 1.407l22.173 41.808c7.093 13.374 26.538 12.43 32.322-1.535l43.071-103.981c.565-.019 1.13-.019 1.695 0l43.071 103.981c5.795 13.987 25.239 14.89 32.323 1.536l22.173-41.809c.646-1.22 2.073-1.811 3.395-1.406l45.241 13.884c14.461 4.439 27.558-9.968 21.77-23.941l-41.325-99.763c3.302-4.186 7.91-7.255 13.214-8.628 17.968-4.651 30.207-20.859 29.765-39.415-.196-8.177 3.654-15.908 10.298-20.68 15.075-10.829 20.632-30.364 13.515-47.506-3.132-7.558-2.335-16.158 2.135-23.007zm-254.196 284.993c-.941 2.272-4.067 2.411-5.214.248l-22.173-41.808c-4.011-7.563-12.862-11.227-21.045-8.717l-45.242 13.884c-2.347.718-4.452-1.594-3.512-3.863l36.662-88.513c8.272 11.331 22.1 17.646 36.657 15.946 8.124-.947 16.177 2.171 21.542 8.345 7.783 8.96 18.75 13.716 29.939 13.715 3.539 0 7.099-.495 10.589-1.464zm209.227-36.394-45.241-13.884c-8.183-2.51-17.036 1.155-21.046 8.717l-22.173 41.808c-1.145 2.161-4.275 2.021-5.215-.248l-38.195-92.209c14.519 4.03 30.278-.48 40.521-12.27 5.364-6.175 13.414-9.295 21.542-8.345 14.571 1.703 28.39-4.614 36.657-15.945l36.664 88.51c.942 2.278-1.175 4.581-3.514 3.866zm32.41-256.797c-7.182 11.003-8.462 24.817-3.424 36.953 4.43 10.671.971 22.831-8.414 29.573-10.672 7.666-16.856 20.085-16.542 33.22.276 11.552-7.344 21.642-18.53 24.537-10.463 2.709-19.249 9.519-24.518 18.728-.014.027-.029.053-.043.079-1.117 1.963-2.085 4.029-2.864 6.194-3.915 10.871-14.658 17.533-26.141 16.187-13.049-1.526-25.988 3.487-34.605 13.406-7.577 8.722-20.006 11.045-30.224 5.65-3.475-1.836-7.155-3.11-10.913-3.847-.031-.007-.062-.014-.093-.02-4.992-.967-10.122-.966-15.114.004-.018.004-.035.008-.053.011-3.767.737-7.454 2.013-10.937 3.852-10.218 5.396-22.646 3.072-30.223-5.65-7.598-8.745-18.551-13.675-29.982-13.675-1.534 0-3.079.089-4.624.27-11.472 1.343-22.227-5.315-26.142-16.187-.779-2.163-1.745-4.226-2.861-6.188-.017-.032-.034-.062-.051-.094-5.27-9.205-14.053-16.012-24.513-18.72-11.186-2.896-18.805-12.985-18.529-24.536.314-13.136-5.87-25.554-16.542-33.221-9.384-6.741-12.845-18.902-8.414-29.574 5.038-12.136 3.758-25.95-3.424-36.953-6.315-9.675-5.149-22.265 2.838-30.615 9.081-9.496 12.878-22.84 10.156-35.694-2.394-11.304 3.242-22.622 13.705-27.524 11.899-5.574 20.259-16.645 22.365-29.615 1.851-11.406 11.195-19.924 22.722-20.714 13.109-.899 24.905-8.202 31.553-19.537 5.847-9.966 17.639-14.532 28.67-11.106 12.549 3.897 26.186 1.348 36.48-6.819 9.05-7.182 21.694-7.182 30.747 0 10.293 8.166 23.928 10.717 36.479 6.819 11.035-3.427 22.825 1.141 28.67 11.106 6.648 11.334 18.444 18.637 31.553 19.537 11.527.791 20.871 9.309 22.722 20.714 2.106 12.97 10.467 24.041 22.365 29.616 10.464 4.901 16.099 16.219 13.705 27.523-2.722 12.854 1.074 26.198 10.156 35.694 7.983 8.35 9.149 20.94 2.834 30.616z"/><path d="m113.951 192.129c4.107.505 7.854-2.417 8.359-6.527 8.282-67.315 65.757-118.076 133.69-118.076 67.966 0 125.443 50.788 133.698 118.139.466 3.801 3.7 6.588 7.434 6.588.305 0 .612-.019.922-.057 4.111-.504 7.035-4.245 6.532-8.356-9.176-74.861-73.054-131.313-148.586-131.313-75.497 0-139.371 56.422-148.577 131.243-.505 4.111 2.417 7.853 6.528 8.359z"/><path d="m398.055 212.26c-4.099-.5-7.852 2.421-8.356 6.532-8.252 67.354-65.73 118.145-133.699 118.145-67.938 0-125.413-50.766-133.692-118.086-.505-4.11-4.245-7.031-8.359-6.528-4.11.505-7.034 4.248-6.528 8.359 9.202 74.827 73.076 131.253 148.578 131.253 75.536 0 139.414-56.455 148.586-131.32.505-4.11-2.419-7.851-6.53-8.355z"/><path d="m361.899 171.281c-1.906-5.866-7.12-9.8-13.285-10.021l-58.801-2.109-20.177-55.272c-2.115-5.794-7.467-9.538-13.635-9.538s-11.52 3.744-13.635 9.538l-20.177 55.272-58.801 2.109c-6.164.221-11.379 4.155-13.285 10.021s0 12.114 4.857 15.916l46.331 36.269-16.164 56.576c-1.695 5.931.435 12.106 5.426 15.732 4.985 3.622 11.516 3.746 16.637.298l48.81-32.857 48.811 32.855c5.115 3.444 11.646 3.328 16.637-.298 4.991-3.625 7.12-9.8 5.425-15.732l-16.164-56.575 46.331-36.269c4.858-3.802 6.765-10.049 4.859-15.915zm-60.69 40.574c-4.675 3.66-6.642 9.713-5.01 15.419l15.89 55.615-47.982-32.297c-2.463-1.658-5.285-2.487-8.107-2.487s-5.644.829-8.106 2.486l-47.983 32.297 15.89-55.614c1.631-5.708-.335-11.759-5.009-15.419l-45.546-35.654 57.805-2.074c5.932-.213 11.08-3.954 13.115-9.529l19.835-54.334 19.835 54.334c2.036 5.575 7.183 9.316 13.115 9.528l57.803 2.074z"/></g></g></svg>