<?xml version="1.0" encoding="iso-8859-1"?>
<!-- Generator: Adobe Illustrator 19.0.0, SVG Export Plug-In . SVG Version: 6.00 Build 0)  -->
<svg version="1.1" id="Capa_1" xmlns="http://www.w3.org/2000/svg" xmlns:xlink="http://www.w3.org/1999/xlink" x="0px" y="0px"
	 viewBox="0 0 512 512" style="enable-background:new 0 0 512 512;" xml:space="preserve">
<g>
	<g>
		<path d="M256,0C144.702,0,54.154,90.547,54.154,201.846c0,69.363,35.172,130.662,88.615,167.011v128.373
			c0,5.012,2.541,9.682,6.75,12.402c4.207,2.721,9.509,3.121,14.08,1.066L256,469.119l92.401,41.58c1.935,0.87,4,1.301,6.059,1.301
			c2.804,0,5.594-0.798,8.021-2.367c4.208-2.721,6.75-7.391,6.75-12.402V368.858c53.443-36.349,88.615-97.648,88.615-167.011
			C457.846,90.547,367.298,0,256,0z M339.692,474.39l-77.632-34.934c-1.927-0.868-3.994-1.302-6.06-1.302s-4.133,0.433-6.06,1.301
			l-77.632,34.934v-88.835c7.423,3.384,15.042,6.292,22.805,8.745c0.44,0.14,0.879,0.283,1.321,0.419
			c0.991,0.305,1.985,0.599,2.98,0.888c0.737,0.216,1.474,0.43,2.213,0.638c0.803,0.224,1.609,0.441,2.415,0.655
			c0.94,0.251,1.882,0.496,2.827,0.734c0.668,0.167,1.337,0.331,2.007,0.49c1.087,0.261,2.177,0.513,3.271,0.756
			c0.567,0.126,1.135,0.251,1.703,0.372c1.198,0.256,2.4,0.498,3.607,0.733c0.491,0.095,0.982,0.192,1.474,0.284
			c1.278,0.238,2.561,0.461,3.847,0.675c0.441,0.074,0.882,0.15,1.324,0.22c1.327,0.212,2.66,0.407,3.997,0.592
			c0.414,0.057,0.827,0.119,1.241,0.174c1.353,0.179,2.712,0.34,4.072,0.492c0.406,0.045,0.81,0.096,1.216,0.14
			c1.357,0.144,2.719,0.267,4.084,0.383c0.414,0.035,0.826,0.078,1.241,0.11c1.345,0.106,2.696,0.191,4.049,0.271
			c0.434,0.026,0.866,0.06,1.302,0.083c1.367,0.072,2.739,0.121,4.113,0.165c0.414,0.014,0.825,0.036,1.239,0.047
			c1.776,0.046,3.558,0.072,5.346,0.072c1.787,0,3.569-0.026,5.345-0.072c0.414-0.011,0.825-0.033,1.239-0.047
			c1.374-0.044,2.746-0.094,4.113-0.165c0.434-0.023,0.867-0.057,1.302-0.083c1.353-0.08,2.704-0.164,4.049-0.271
			c0.415-0.032,0.827-0.075,1.241-0.11c1.365-0.116,2.727-0.24,4.084-0.383c0.406-0.043,0.81-0.094,1.216-0.14
			c1.361-0.153,2.719-0.313,4.072-0.492c0.415-0.055,0.827-0.116,1.241-0.174c1.336-0.185,2.669-0.38,3.997-0.592
			c0.442-0.071,0.882-0.147,1.324-0.22c1.286-0.214,2.569-0.437,3.847-0.675c0.492-0.092,0.983-0.188,1.474-0.284
			c1.206-0.234,2.408-0.478,3.607-0.733c0.569-0.121,1.136-0.246,1.703-0.372c1.094-0.243,2.184-0.495,3.271-0.756
			c0.669-0.16,1.338-0.324,2.007-0.49c0.945-0.237,1.886-0.482,2.827-0.734c0.806-0.215,1.612-0.43,2.415-0.655
			c0.739-0.208,1.477-0.422,2.213-0.638c0.995-0.29,1.99-0.583,2.98-0.888c0.442-0.137,0.881-0.28,1.321-0.419
			c7.763-2.453,15.382-5.36,22.805-8.744V474.39z M312.229,364.724c-0.589,0.203-1.178,0.407-1.769,0.604
			c-0.898,0.3-1.8,0.595-2.705,0.88c-1.053,0.331-2.109,0.65-3.168,0.96c-0.747,0.22-1.495,0.439-2.246,0.649
			c-1.401,0.391-2.807,0.765-4.218,1.12c-0.526,0.133-1.054,0.259-1.581,0.387c-1.381,0.334-2.768,0.652-4.158,0.952
			c-0.35,0.076-0.697,0.156-1.047,0.228c-1.794,0.375-3.594,0.724-5.401,1.041c-0.184,0.032-0.369,0.06-0.554,0.093
			c-1.628,0.281-3.261,0.536-4.897,0.769c-0.369,0.053-0.738,0.105-1.109,0.156c-1.745,0.237-3.493,0.455-5.247,0.639
			c-0.066,0.007-0.132,0.016-0.198,0.023c-1.836,0.191-3.679,0.348-5.524,0.479c-0.4,0.029-0.802,0.05-1.203,0.077
			c-1.435,0.093-2.87,0.166-4.309,0.224c-0.489,0.02-0.978,0.04-1.467,0.056c-1.807,0.055-3.616,0.093-5.428,0.093
			s-3.621-0.037-5.428-0.095c-0.49-0.015-0.979-0.036-1.467-0.056c-1.439-0.057-2.874-0.131-4.309-0.224
			c-0.401-0.026-0.802-0.048-1.203-0.077c-1.845-0.132-3.687-0.289-5.524-0.479c-0.066-0.007-0.132-0.016-0.198-0.023
			c-1.754-0.184-3.502-0.402-5.247-0.639c-0.369-0.05-0.738-0.102-1.108-0.156c-1.637-0.234-3.27-0.488-4.898-0.769
			c-0.184-0.031-0.369-0.06-0.554-0.093c-1.807-0.317-3.608-0.667-5.401-1.041c-0.349-0.073-0.697-0.154-1.047-0.228
			c-1.39-0.299-2.777-0.618-4.158-0.952c-0.528-0.128-1.056-0.254-1.581-0.387c-1.411-0.354-2.817-0.73-4.218-1.12
			c-0.751-0.21-1.499-0.429-2.246-0.649c-1.058-0.311-2.115-0.629-3.169-0.96c-0.905-0.286-1.806-0.58-2.705-0.88
			c-0.592-0.197-1.181-0.401-1.769-0.604c-67.484-23.361-116.078-87.547-116.078-162.876c0-95.01,77.297-172.308,172.308-172.308
			s172.308,77.297,172.308,172.308C428.308,277.175,379.713,341.361,312.229,364.724z"/>
	</g>
</g>
<g>
	<g>
		<path d="M343.622,201.846l27.741-52.14c2.394-4.497,2.299-9.91-0.248-14.321c-2.547-4.411-7.188-7.2-12.279-7.376l-59.025-2.045
			L268.527,75.87c-2.699-4.32-7.433-6.946-12.527-6.946s-9.828,2.626-12.527,6.946l-31.283,50.094l-59.025,2.045
			c-5.091,0.176-9.732,2.965-12.279,7.376s-2.642,9.824-0.248,14.321l27.741,52.14l-27.741,52.14
			c-2.394,4.497-2.299,9.91,0.248,14.321c2.547,4.411,7.188,7.2,12.279,7.376l59.025,2.045l31.283,50.094
			c2.698,4.32,7.433,6.946,12.527,6.946s9.828-2.626,12.527-6.946l31.283-50.094l59.025-2.045c5.091-0.176,9.732-2.965,12.279-7.376
			c2.547-4.411,2.642-9.824,0.248-14.321L343.622,201.846z M290.935,248.479c-4.909,0.17-9.414,2.771-12.015,6.938L256,292.118
			l-22.919-36.7c-2.602-4.167-7.106-6.767-12.015-6.938l-43.242-1.499l20.323-38.198c2.308-4.337,2.308-9.537,0-13.874
			l-20.323-38.198l43.242-1.499c4.909-0.17,9.414-2.771,12.015-6.938L256,111.575l22.919,36.7c2.602,4.167,7.106,6.767,12.015,6.938
			l43.242,1.499l-20.323,38.198c-2.307,4.337-2.307,9.538,0.001,13.874l20.323,38.198L290.935,248.479z"/>
	</g>
</g>
<g>
</g>
<g>
</g>
<g>
</g>
<g>
</g>
<g>
</g>
<g>
</g>
<g>
</g>
<g>
</g>
<g>
</g>
<g>
</g>
<g>
</g>
<g>
</g>
<g>
</g>
<g>
</g>
<g>
</g>
</svg>
