<?xml version="1.0" encoding="UTF-8"?>
<svg width="20px" height="20px" viewBox="0 0 20 20" version="1.1" xmlns="http://www.w3.org/2000/svg" xmlns:xlink="http://www.w3.org/1999/xlink">
    <!-- Generator: Sketch 63.1 (92452) - https://sketch.com -->
    <title>交易</title>
    <desc>Created with Sketch.</desc>
    <g id="Page-1" stroke="none" stroke-width="1" fill="none" fill-rule="evenodd">
        <g id="Deposit-Liquidity" transform="translate(-21.000000, -307.000000)" fill="#ffffff" fill-rule="nonzero">
            <g id="交易" transform="translate(21.000000, 307.000000)">
                <path d="M9.60523275,7.04139429 L1.72321028,14.6767365 C1.47555654,14.9166334 1.46926841,15.3118713 1.70916533,15.559525 C1.94906226,15.8071788 2.34430016,15.8134669 2.59195389,15.57357 L11.6874595,6.76202759 C12.1037006,6.35855465 11.7931796,5.65477528 11.2145279,5.69052605 L6.48776593,5.98317162 C6.14364572,6.00460862 5.88205929,6.3009513 5.90349629,6.64507151 C5.92493329,6.98919172 6.22127596,7.25077816 6.56539617,7.22934116 L9.60523275,7.04088356 L9.60523275,7.04139429 Z" id="Path"></path>
                <path d="M15.7375106,1.8192288 C15.9197927,1.94777508 16.0196496,2.16380308 15.9994663,2.38593713 C15.979283,2.60807119 15.8421258,2.80256386 15.6396604,2.89615164 C15.437195,2.98973942 15.2001808,2.96820409 15.0178987,2.83965781 C13.5466013,1.80115762 11.7891622,1.24508731 9.98827666,1.248238 C5.16141252,1.248238 1.2482358,5.16192543 1.2482358,9.98827886 C1.2482358,11.7170838 1.75078943,13.3692799 2.6792879,14.7824566 C2.86869505,15.0704457 2.78877856,15.4574519 2.50078943,15.646859 C2.21280029,15.8362662 1.82579414,15.7563497 1.63638698,15.4683606 C0.566029117,13.8413365 -0.00296602555,11.9358066 1.1627345e-05,9.98827886 C1.1627345e-05,4.47193566 4.47193346,1.27246125e-05 9.98827666,1.27246125e-05 C12.0467919,-0.00327952232 14.0555973,0.632357383 15.7375106,1.8192288 Z M4.21810301,18.1420072 C4.0338185,18.0140115 3.93242394,17.7969442 3.95253442,17.5734733 C3.9726449,17.3500024 4.11116493,17.1545255 4.31534055,17.0614879 C4.51951618,16.9684503 4.75791978,16.9921729 4.93975777,17.1236211 C6.414742,18.1705756 8.17949746,18.7315126 9.98827666,18.7283197 C14.8151408,18.7283197 18.7283175,14.815143 18.7283175,9.98827886 C18.7283175,8.24262002 18.2160601,6.5740807 17.2696863,5.15273238 C17.1461578,4.9670747 17.1310599,4.72961826 17.2300799,4.52981059 C17.3290999,4.33000293 17.5271943,4.19819958 17.7497429,4.1840496 C17.9722914,4.16989962 18.1854836,4.27555273 18.3090121,4.46121041 C19.39923,6.0981104 19.9795333,8.02155378 19.9765416,9.98827886 C19.9765416,15.5046221 15.5046199,19.9765439 9.98827666,19.9765439 C7.92094874,19.9797038 5.90403131,19.3384605 4.21810301,18.1420072 L4.21810301,18.1420072 Z" id="Shape"></path>
                <path d="M18.2313819,5.24874873 L10.3728528,13.0694842 L13.4463972,12.8794944 C13.6690039,12.8656271 13.8820992,12.9715724 14.005412,13.1574219 C14.1287248,13.3432713 14.1435211,13.5807899 14.0442271,13.7805067 C13.9449332,13.9802234 13.7466342,14.1117966 13.5240274,14.125664 L8.79726542,14.4183095 C8.22269954,14.4540603 7.91013571,13.7584525 8.31820516,13.352426 L17.3503809,4.36468336 C17.5084864,4.20730768 17.7385408,4.14623486 17.9538849,4.20447043 C18.169229,4.262706 18.3371469,4.4314026 18.3943854,4.64701384 C18.451624,4.86262508 18.3894874,5.0923945 18.2313819,5.24977017 L18.2313819,5.24874873 Z" id="Path"></path>
            </g>
        </g>
    </g>
</svg>